<svg width="48" height="48" viewBox="0 0 48 48" fill="none" xmlns="http://www.w3.org/2000/svg">
<path fill-rule="evenodd" clip-rule="evenodd" d="M21.0372 20.2325C21.7724 20.9512 22.6968 21.3753 23.7096 21.4549C24.5216 21.5167 25.4014 21.3312 26.0925 20.9512C27.4861 20.1823 28.3425 18.7418 28.3454 17.1541V16.8448L29.8011 15.3985L31.2539 13.9492L31.6968 13.9315C32.37 13.908 32.8396 13.7842 33.4537 13.469C33.8879 13.2451 34.2274 12.9918 34.5758 12.6265C35.1634 12.0139 35.565 11.2332 35.7156 10.4084C35.7865 10.0255 35.7865 9.25373 35.7185 8.89138C35.3761 7.12395 34.0768 5.7983 32.3228 5.42414C31.9124 5.33873 31.1536 5.33 30.7225 5.41249C29.8367 5.57733 29.1073 5.9633 28.4605 6.6055C27.6398 7.42726 27.1938 8.48196 27.1938 9.6101V9.95174L25.7352 11.407L24.2794 12.8593L24.0638 12.8622L23.8483 12.868L19.7114 8.72056L15.5746 4.57585L15.5568 4.12515C15.5361 3.62143 15.4802 3.31212 15.3325 2.88499C15.111 2.25167 14.7891 1.74205 14.305 1.2619C13.5549 0.513678 12.6396 0.0894856 11.6208 0.0129067C10.729 -0.0548561 9.85501 0.145456 9.10799 0.584369C8.09519 1.17647 7.35706 2.1839 7.09129 3.3239C6.81079 4.51988 7.07058 5.83065 7.78218 6.81757C7.95931 7.062 8.45835 7.60989 8.50558 7.60989C8.52046 7.60989 8.60312 7.66295 8.68579 7.73073C9.34724 8.25209 10.295 8.57918 11.1986 8.5939L11.544 8.59972L15.6484 12.7179L19.7528 16.8359V17.1806C19.7528 18.3471 20.2016 19.4165 21.0372 20.2325ZM22.5395 18.6444C22.8998 18.9832 23.2836 19.1629 23.7413 19.2129C24.4263 19.2895 25.0612 19.0539 25.5307 18.559C25.7787 18.2997 25.9323 18.0435 26.0326 17.7282C26.1389 17.3955 26.1507 17.0714 26.0799 16.4763L26.0208 15.9902L28.0907 13.9135C28.3581 13.6455 28.6173 13.3857 28.8582 13.1441C29.6438 12.3567 30.2349 11.7643 30.2847 11.7101L30.4028 11.5805L30.825 11.6276C31.3978 11.6925 31.7109 11.6867 31.9913 11.6158C32.5701 11.4686 33.0868 11.0532 33.3468 10.526C33.58 10.0546 33.642 9.66882 33.5622 9.20634C33.4796 8.72914 33.2906 8.36678 32.9482 8.03096C32.5849 7.67751 32.207 7.49488 31.699 7.43292C30.6773 7.30626 29.6676 8.00152 29.4106 9.0119C29.3368 9.29466 29.3339 9.66575 29.3988 10.2343L29.4462 10.6527L27.2462 12.8472L25.0435 15.0447L24.5032 14.9946C24.007 14.9475 23.9244 14.9475 23.5051 14.9887C23.254 15.0124 23.0326 15.0329 23.0149 15.0329C22.9971 15.0329 20.7884 12.8324 18.1045 10.1429L13.2234 5.25316L13.2737 4.8054C13.3446 4.17201 13.3268 3.78318 13.2058 3.45914C12.7511 2.2455 11.4045 1.70348 10.2471 2.27202C10.0137 2.38394 9.92522 2.4517 9.71557 2.66085C9.2903 3.08504 9.10136 3.50038 9.07483 4.07481C9.0187 5.22663 9.80406 6.17214 10.932 6.31352C11.1388 6.33714 11.2746 6.33422 11.7116 6.28408L12.2402 6.2252L17.1064 11.0915L21.9725 15.9608L21.9549 16.167C21.946 16.2819 21.9224 16.5352 21.9017 16.7296C21.8132 17.5545 22.011 18.1496 22.5395 18.6444ZM24.5651 16.8328C24.6153 17.2541 24.5357 17.4809 24.2875 17.6134C24.0336 17.7518 23.7767 17.7195 23.5819 17.525C23.4046 17.3513 23.3752 17.2275 23.4195 16.8476L23.4549 16.5441L23.6497 16.5236C23.8978 16.4999 24.1282 16.4999 24.3526 16.5236L24.5297 16.5441L24.5651 16.8328ZM31.9352 9.91033C31.888 9.97811 31.7995 10.0606 31.7405 10.0901C31.6814 10.1195 31.5691 10.1489 31.4894 10.1577C31.2916 10.1726 30.9431 10.1253 30.9137 10.0812C30.8694 10.0105 30.8487 9.49492 30.8841 9.37425C31.02 8.9205 31.6253 8.82328 31.9323 9.20925C32.018 9.3152 32.0239 9.34173 32.0239 9.55381C32.0239 9.76297 32.015 9.79548 31.9352 9.91033ZM11.7619 4.41361C11.747 4.58443 11.7265 4.72872 11.7176 4.73762C11.7116 4.74635 11.5522 4.75816 11.3662 4.76706C10.9941 4.78469 10.9173 4.76706 10.7696 4.61678C10.5778 4.42234 10.5364 4.16907 10.6575 3.91867C10.879 3.46209 11.5581 3.49744 11.7412 3.97759C11.7855 4.08953 11.7884 4.15139 11.7619 4.41361Z" fill="white"/>
<path fill-rule="evenodd" clip-rule="evenodd" d="M20.2323 26.9007C20.9512 26.1655 21.3754 25.2414 21.4548 24.2286C21.5167 23.4165 21.3312 22.5365 20.9512 21.8456C20.1824 20.4519 18.7419 19.5955 17.1542 19.5926H16.8449L15.3984 18.1369L13.9491 16.6841L13.9315 16.2412C13.9079 15.5679 13.7841 15.0985 13.469 14.4843C13.2451 14.0502 12.9918 13.7107 12.6266 13.3623C12.0138 12.7746 11.2331 12.3731 10.4083 12.2225C10.0254 12.1516 9.25363 12.1516 8.89128 12.2194C7.12385 12.562 5.79837 13.8613 5.42421 15.6151C5.3388 16.0257 5.3299 16.7845 5.4124 17.2156C5.5774 18.1015 5.9632 18.8308 6.6054 19.4774C7.42732 20.2984 8.48186 20.7442 9.61016 20.7442H9.9518L11.407 22.2028L12.8592 23.6587L12.8622 23.8741L12.8681 24.0898L8.72046 28.2266L4.57576 32.3635L4.12513 32.3811C3.62142 32.4018 3.31211 32.458 2.88499 32.6055C2.25166 32.8271 1.74204 33.1489 1.26189 33.6332C0.513673 34.3831 0.0894808 35.2985 0.012902 36.3172C-0.0548444 37.209 0.14545 38.083 0.584363 38.83C1.17646 39.8428 2.18389 40.5811 3.3239 40.8469C4.51979 41.1274 5.83072 40.8676 6.81748 40.1558C7.06206 39.9787 7.60995 39.4796 7.60995 39.4324C7.60995 39.4177 7.66301 39.335 7.73079 39.2524C8.25215 38.5909 8.57908 37.643 8.5938 36.7395L8.59962 36.394L12.7178 32.2896L16.836 28.1853H17.1807C18.3472 28.1853 19.4164 27.7364 20.2323 26.9007ZM18.6432 25.4017C18.9819 25.0414 19.1616 24.6576 19.2118 24.1999C19.2883 23.5149 19.0526 22.8799 18.5578 22.4105C18.2985 22.1625 18.0422 22.0089 17.7271 21.9086C17.3942 21.8023 17.0702 21.7905 16.4751 21.8613L15.9891 21.9204L13.9124 19.8504C13.644 19.5829 13.3843 19.3237 13.1427 19.0829C12.3554 18.2972 11.7631 17.7063 11.7089 17.6564L11.5793 17.5384L11.6264 17.1161C11.6912 16.5433 11.6854 16.2303 11.6147 15.9498C11.4674 15.371 11.0521 14.8544 10.5248 14.5944C10.0534 14.3612 9.66758 14.2992 9.2051 14.3789C8.7279 14.4616 8.36555 14.6505 8.02973 14.993C7.67628 15.3563 7.49365 15.7342 7.43169 16.2421C7.30503 17.2638 8.00029 18.2736 9.01066 18.5304C9.29342 18.6044 9.66467 18.6073 10.2331 18.5424L10.6514 18.495L12.8459 20.695L15.0435 22.8977L14.9935 23.438C14.9462 23.9342 14.9462 24.0168 14.9875 24.4361C15.0111 24.6872 15.0317 24.9086 15.0317 24.9263C15.0317 24.9441 12.8312 27.1528 10.1419 29.8368L5.25193 34.7178L4.80417 34.6675C4.17082 34.5967 3.78197 34.6144 3.45794 34.7354C2.24431 35.1902 1.70229 36.5367 2.27083 37.6941C2.38275 37.9275 2.45051 38.016 2.65966 38.2257C3.08383 38.6509 3.49919 38.8399 4.0736 38.8664C5.2254 38.9225 6.17091 38.1372 6.31229 37.0092C6.3359 36.8025 6.33299 36.6666 6.28285 36.2297L6.22396 35.701L11.0903 30.8348L15.9597 25.9687L16.1658 25.9863C16.2806 25.9952 16.5341 26.0188 16.7284 26.0395C17.5532 26.128 18.1483 25.9302 18.6432 25.4017ZM16.8316 23.3761C17.2528 23.3259 17.4796 23.4055 17.6121 23.6537C17.7506 23.9076 17.7182 24.1645 17.5238 24.3593C17.35 24.5366 17.2263 24.566 16.8463 24.5217L16.5428 24.4863L16.5223 24.2915C16.4987 24.0434 16.4987 23.813 16.5223 23.5886L16.5428 23.4115L16.8316 23.3761ZM9.9091 16.006C9.97687 16.0532 10.0594 16.1417 10.0888 16.2007C10.1183 16.2598 10.1477 16.372 10.1566 16.4518C10.1713 16.6496 10.1241 16.9981 10.0799 17.0275C10.0092 17.0718 9.49369 17.0925 9.37301 17.0571C8.91927 16.9212 8.82205 16.3159 9.20801 16.0089C9.31413 15.9231 9.3405 15.9173 9.55273 15.9173C9.76173 15.9173 9.79424 15.9262 9.9091 16.006ZM4.41238 36.1793C4.5832 36.1942 4.72749 36.2148 4.73639 36.2237C4.74529 36.2297 4.75693 36.389 4.76583 36.575C4.78346 36.9471 4.76583 37.0239 4.61555 37.1716C4.42127 37.3635 4.16787 37.4049 3.91748 37.2837C3.46089 37.0623 3.49625 36.3832 3.97639 36.2001C4.08833 36.1557 4.15019 36.1528 4.41238 36.1793Z" fill="white"/>
<path fill-rule="evenodd" clip-rule="evenodd" d="M26.9018 27.7674C26.1665 27.0487 25.2423 26.6244 24.2295 26.5449C23.4175 26.483 22.5376 26.6687 21.8466 27.0487C20.4528 27.8174 19.5966 29.2579 19.5937 30.8456V31.155L18.1378 32.6014L16.6852 34.0506L16.2421 34.0682C15.569 34.0919 15.0994 34.2156 14.4852 34.5307C14.0512 34.7546 13.7117 35.0079 13.3632 35.3732C12.7757 35.9859 12.374 36.7666 12.2234 37.5914C12.1526 37.9743 12.1526 38.7461 12.2205 39.1085C12.563 40.8759 13.8623 42.2015 15.6163 42.5755C16.0266 42.661 16.7855 42.6699 17.2166 42.5874C18.1024 42.4224 18.8318 42.0365 19.4785 41.3943C20.2993 40.5724 20.7451 39.5179 20.7451 38.3897V38.0479L22.2039 36.5927L23.6596 35.1406L23.8751 35.1377L24.0907 35.1317L28.2276 39.2793L32.3644 43.424L32.3822 43.8747C32.4028 44.3784 32.4589 44.6877 32.6066 45.1147C32.828 45.7482 33.1499 46.2578 33.6341 46.7379C34.3842 47.486 35.2995 47.9103 36.3182 47.9869C37.21 48.0546 38.084 47.8544 38.8311 47.4154C39.8439 46.8233 40.582 45.8158 40.8478 44.6759C41.1283 43.48 40.8685 42.169 40.1569 41.1823C39.9798 40.9377 39.4807 40.3898 39.4335 40.3898C39.4186 40.3898 39.3359 40.3369 39.2533 40.2691C38.5918 39.7476 37.644 39.4207 36.7404 39.4059L36.3949 39.4001L32.2907 35.2819L28.1862 31.1638V30.8192C28.1862 29.6526 27.7373 28.5833 26.9018 27.7674ZM25.3971 29.3554C25.0369 29.0167 24.653 28.837 24.1954 28.7868C23.5103 28.7103 22.8755 28.946 22.4059 29.4408C22.158 29.7 22.0045 29.9564 21.904 30.2715C21.7977 30.6044 21.7859 30.9284 21.8568 31.5235L21.9158 32.0095L19.8459 34.0862C19.5785 34.3544 19.3193 34.6142 19.0785 34.8557C18.2928 35.6432 17.7017 36.2355 17.652 36.2896L17.5338 36.4193L17.1116 36.3721C16.5388 36.3074 16.2258 36.3132 15.9453 36.3839C15.3665 36.5312 14.8498 36.9465 14.5899 37.4738C14.3566 37.9452 14.2946 38.331 14.3744 38.7935C14.4571 39.2707 14.646 39.6331 14.9886 39.9689C15.3518 40.3223 15.7297 40.505 16.2376 40.5669C17.2593 40.6936 18.2692 39.9983 18.5261 38.988C18.5998 38.7052 18.6027 38.3339 18.5379 37.7655L18.4906 37.3472L20.6904 35.1525L22.8932 32.9551L23.4335 33.0051C23.9296 33.0524 24.0123 33.0524 24.4315 33.0111C24.6826 32.9875 24.9041 32.9668 24.9217 32.9668C24.9395 32.9668 27.1482 35.1673 29.8322 37.8567L34.7132 42.7467L34.6631 43.1945C34.5921 43.8278 34.6099 44.2166 34.7309 44.5406C35.1856 45.7544 36.5321 46.2963 37.6897 45.7278C37.9229 45.6159 38.0114 45.5481 38.2211 45.339C38.6463 44.9148 38.8353 44.4994 38.8618 43.925C38.9179 42.7732 38.1326 41.8277 37.0046 41.6862C36.7979 41.6627 36.662 41.6656 36.2251 41.7158L35.6964 41.7747L30.8303 36.9083L25.9641 32.0389L25.9817 31.8328C25.9906 31.7178 26.0142 31.4645 26.0349 31.2701C26.1236 30.4454 25.9258 29.8502 25.3971 29.3554ZM23.3715 31.167C23.3214 30.7458 23.4011 30.519 23.6491 30.3863C23.9031 30.248 24.1599 30.2804 24.3549 30.4748C24.532 30.6486 24.5614 30.7723 24.5173 31.1523L24.4819 31.4558L24.2869 31.4763C24.0388 31.4999 23.8086 31.4999 23.5841 31.4763L23.4069 31.4558L23.3715 31.167ZM16.0014 38.0895C16.0486 38.0217 16.1371 37.9392 16.1962 37.9098C16.2554 37.8804 16.3675 37.8509 16.4472 37.842C16.6451 37.8273 16.9935 37.8745 17.0231 37.9187C17.0673 37.9894 17.088 38.5048 17.0525 38.6256C16.9167 39.0792 16.3114 39.1764 16.0043 38.7906C15.9188 38.6845 15.9128 38.658 15.9128 38.4459C15.9128 38.2367 15.9217 38.2044 16.0014 38.0895ZM36.1749 43.5862C36.1896 43.4154 36.2103 43.271 36.2191 43.2622C36.2251 43.2533 36.3846 43.2415 36.5706 43.2328C36.9425 43.215 37.0193 43.2328 37.167 43.3829C37.3589 43.5773 37.4003 43.8307 37.2791 44.0811C37.0577 44.5377 36.3786 44.5023 36.1955 44.0222C36.1511 43.9103 36.1482 43.8485 36.1749 43.5862Z" fill="white"/>
<path fill-rule="evenodd" clip-rule="evenodd" d="M27.5623 21.0392C26.8435 21.7746 26.4194 22.6987 26.3398 23.7115C26.278 24.5236 26.4636 25.4034 26.8435 26.0945C27.6124 27.4882 29.0527 28.3444 30.6406 28.3474H30.9499L32.3962 29.8032L33.8455 31.2559L33.8633 31.6989C33.8867 32.372 34.0105 32.8416 34.3257 33.4557C34.5496 33.8899 34.8029 34.2294 35.1682 34.5778C35.7808 35.1654 36.5615 35.567 37.3863 35.7176C37.7692 35.7885 38.541 35.7885 38.9033 35.7205C40.6707 35.3781 41.9964 34.0788 42.3704 32.3248C42.456 31.9144 42.4647 31.1556 42.3822 30.7245C42.2174 29.8387 41.8314 29.1093 41.1892 28.4625C40.3674 27.6417 39.3127 27.1958 38.1846 27.1958H37.8428L36.3877 25.7371L34.9354 24.2814L34.9325 24.066L34.9265 23.8503L39.0741 19.7134L43.2188 15.5766L43.6695 15.5588C44.1732 15.5383 44.4825 15.4821 44.9098 15.3344C45.5431 15.113 46.0526 14.7911 46.5327 14.3069C47.281 13.5568 47.7052 12.6416 47.7817 11.6228C47.8495 10.731 47.6492 9.85697 47.2103 9.10995C46.6181 8.09714 45.6108 7.35902 44.4707 7.09324C43.2748 6.81274 41.9639 7.07253 40.9771 7.78413C40.7327 7.96126 40.1848 8.4603 40.1848 8.50754C40.1848 8.52242 40.1318 8.60508 40.064 8.68774C39.5426 9.34919 39.2155 10.297 39.2008 11.2006L39.195 11.5461L35.0768 15.6504L30.9586 19.7548H30.6141C29.4476 19.7548 28.3782 20.2037 27.5623 21.0392ZM29.1467 22.5384C28.808 22.8987 28.6283 23.2825 28.5783 23.7402C28.5016 24.4252 28.7373 25.06 29.2321 25.5296C29.4914 25.7776 29.7477 25.9311 30.0628 26.0316C30.3957 26.1378 30.7197 26.1496 31.3148 26.0788L31.8008 26.0197L33.8777 28.0897C34.1457 28.3571 34.4055 28.616 34.6468 28.8569C35.4343 29.6426 36.0268 30.2338 36.081 30.2835L36.2106 30.4016L36.1635 30.824C36.0987 31.3968 36.1045 31.7098 36.1752 31.9903C36.3225 32.5691 36.738 33.0857 37.2651 33.3455C37.7365 33.5788 38.1223 33.6409 38.5848 33.5612C39.062 33.4785 39.4244 33.2896 39.7602 32.9469C40.1136 32.5838 40.2963 32.2057 40.3582 31.698C40.4849 30.6763 39.7896 29.6664 38.7792 29.4095C38.4965 29.3357 38.1254 29.3328 37.5568 29.3977L37.1385 29.4449L34.944 27.2451L32.7464 25.0424L32.7964 24.5019C32.8437 24.0059 32.8437 23.9233 32.8024 23.504C32.7788 23.2529 32.7583 23.0315 32.7583 23.0137C32.7583 22.9961 34.9587 20.7873 37.6482 18.1032L42.538 13.2223L42.9857 13.2724C43.619 13.3433 44.0079 13.3257 44.3319 13.2045C45.5456 12.7498 46.0877 11.4034 45.5191 10.2459C45.4072 10.0126 45.3394 9.92394 45.1302 9.7143C44.7061 9.28918 44.2907 9.10024 43.7163 9.07355C42.5645 9.01758 41.619 9.80294 41.4776 10.9309C41.454 11.1377 41.4569 11.2734 41.5071 11.7105L41.5659 12.2389L36.6996 17.1053L31.8304 21.9714L31.6241 21.9537C31.5093 21.9449 31.256 21.9213 31.0615 21.9006C30.2367 21.8119 29.6416 22.0098 29.1467 22.5384ZM30.9583 24.564C30.5371 24.6142 30.3103 24.5344 30.1778 24.2864C30.0393 24.0325 30.0717 23.7756 30.2661 23.5807C30.4399 23.4035 30.5636 23.3739 30.9436 23.4183L31.2471 23.4537L31.2676 23.6486C31.2912 23.8966 31.2912 24.1269 31.2676 24.3513L31.2471 24.5286L30.9583 24.564ZM37.8808 31.9341C37.813 31.8869 37.7305 31.7983 37.7011 31.7392C37.6717 31.6802 37.6422 31.5681 37.6333 31.4883C37.6186 31.2905 37.6658 30.942 37.71 30.9124C37.7807 30.8681 38.2962 30.8476 38.4169 30.883C38.8706 31.0187 38.9679 31.624 38.5819 31.9312C38.4759 32.0168 38.4494 32.0228 38.2373 32.0228C38.0282 32.0228 37.9957 32.0139 37.8808 31.9341ZM43.3775 11.7606C43.2067 11.7459 43.0624 11.7252 43.0535 11.7164C43.0446 11.7105 43.033 11.551 43.0241 11.3649C43.0064 10.9929 43.0241 10.9162 43.1744 10.7685C43.3688 10.5767 43.6221 10.5352 43.8725 10.6562C44.329 10.8777 44.2938 11.5569 43.8135 11.7401C43.7015 11.7842 43.6397 11.7873 43.3775 11.7606Z" fill="white"/>
</svg>
