<svg width="344" height="346" viewBox="0 0 344 346" fill="none" xmlns="http://www.w3.org/2000/svg">
<path fill-rule="evenodd" clip-rule="evenodd" d="M151.327 145.541C156.616 150.711 163.265 153.762 170.55 154.335C176.392 154.779 182.721 153.444 187.692 150.711C197.717 145.18 203.877 134.818 203.898 123.397V121.172L214.369 110.768L224.82 100.343L228.006 100.215C232.849 100.046 236.227 99.1561 240.644 96.8882C243.767 95.2777 246.21 93.4555 248.716 90.828C252.943 86.4213 255.832 80.8056 256.915 74.8722C257.425 72.1179 257.425 66.5662 256.936 63.9596C254.473 51.2457 245.127 41.7097 232.509 39.0182C229.557 38.4038 224.099 38.341 220.997 38.9344C214.625 40.1202 209.379 42.8966 204.726 47.5163C198.822 53.4275 195.614 61.0144 195.614 69.1296V71.5872L185.121 82.0553L174.65 92.5024L173.099 92.5234L171.549 92.5653L141.79 62.7308L112.032 32.9161L111.904 29.674C111.755 26.0506 111.353 23.8256 110.29 20.753C108.697 16.1972 106.382 12.5313 102.899 9.0774C97.503 3.69511 90.9192 0.643709 83.5906 0.0928437C77.1755 -0.394604 70.8883 1.04633 65.5147 4.20362C58.2291 8.46288 52.9195 15.7098 51.0076 23.9103C48.9899 32.5135 50.8587 41.9424 55.9775 49.0418C57.2517 50.8 60.8415 54.7413 61.1813 54.7413C61.2883 54.7413 61.8829 55.123 62.4776 55.6105C67.2357 59.3609 74.0534 61.7138 80.5535 61.8197L83.0379 61.8616L112.563 91.4854L142.088 121.108V123.588C142.088 131.979 145.316 139.672 151.327 145.541ZM162.134 134.118C164.725 136.554 167.486 137.847 170.778 138.207C175.706 138.758 180.274 137.063 183.651 133.503C185.434 131.638 186.54 129.795 187.261 127.527C188.026 125.133 188.111 122.802 187.601 118.521L187.176 115.025L202.066 100.086C203.99 98.1577 205.854 96.2889 207.587 94.5516C213.238 88.887 217.49 84.6258 217.849 84.236L218.698 83.3039L221.735 83.6425C225.856 84.1091 228.107 84.0673 230.125 83.5576C234.288 82.4987 238.005 79.5105 239.875 75.7182C241.553 72.3273 241.999 69.5521 241.425 66.2252C240.83 62.7925 239.471 60.1859 237.008 57.7702C234.394 55.2277 231.676 53.9139 228.022 53.4683C220.673 52.5571 213.409 57.5584 211.56 64.8265C211.03 66.8606 211.009 69.5299 211.475 73.6201L211.816 76.6293L195.991 92.4152L180.146 108.223L176.259 107.862C172.69 107.524 172.096 107.524 169.079 107.821C167.274 107.99 165.68 108.138 165.554 108.138C165.426 108.138 149.537 92.3093 130.23 72.9627L95.1187 37.7883L95.4806 34.5673C95.9903 30.0111 95.8623 27.2141 94.9919 24.8831C91.7209 16.1529 82.0348 12.2539 73.709 16.3436C72.0299 17.1487 71.3934 17.6362 69.8853 19.1406C66.8261 22.192 65.467 25.1798 65.2761 29.3119C64.8723 37.5974 70.5218 44.3989 78.6358 45.4159C80.123 45.5858 81.1004 45.5648 84.2434 45.2041L88.0461 44.7806L123.051 79.7862L158.055 114.813L157.928 116.296C157.864 117.123 157.694 118.945 157.545 120.344C156.909 126.277 158.332 130.558 162.134 134.118ZM176.705 121.086C177.065 124.116 176.493 125.748 174.708 126.701C172.881 127.697 171.033 127.464 169.632 126.065C168.357 124.815 168.145 123.925 168.464 121.192L168.719 119.009L170.12 118.861C171.905 118.691 173.562 118.691 175.176 118.861L176.45 119.009L176.705 121.086ZM229.721 71.2894C229.381 71.7769 228.745 72.3704 228.32 72.5822C227.895 72.7939 227.088 73.0057 226.514 73.0686C225.091 73.1756 222.585 72.8358 222.373 72.5182C222.054 72.0097 221.905 68.3011 222.16 67.4331C223.137 64.1691 227.492 63.4697 229.7 66.2462C230.317 67.0083 230.359 67.1992 230.359 68.7247C230.359 70.2293 230.295 70.4632 229.721 71.2894ZM84.6053 31.749C84.4982 32.9778 84.3504 34.0158 84.2864 34.0798C84.2434 34.1426 83.0972 34.2275 81.759 34.2915C79.0827 34.4184 78.5299 34.2915 77.4675 33.2105C76.0875 31.8118 75.7896 29.9899 76.6611 28.1887C78.2542 24.9044 83.1391 25.1586 84.4563 28.6125C84.7752 29.4178 84.7961 29.8627 84.6053 31.749Z" fill="black"/>
<path fill-rule="evenodd" clip-rule="evenodd" d="M145.54 193.513C150.712 188.224 153.763 181.576 154.334 174.291C154.78 168.449 153.445 162.119 150.712 157.149C145.181 147.124 134.819 140.963 123.398 140.942H121.173L110.767 130.471L100.342 120.02L100.216 116.834C100.046 111.991 99.1555 108.614 96.8887 104.196C95.2783 101.074 93.456 98.6313 90.8285 96.1248C86.4207 91.8973 80.805 89.0092 74.8716 87.9258C72.1172 87.4162 66.5655 87.4162 63.959 87.9037C51.2451 90.3683 41.7103 99.7146 39.0188 112.331C38.4044 115.284 38.3404 120.743 38.9338 123.844C40.1207 130.216 42.896 135.463 47.5156 140.114C53.4281 146.019 61.0138 149.226 69.1302 149.226H71.5878L82.0559 159.719L92.5018 170.191L92.5239 171.741L92.5658 173.293L62.7302 203.05L32.9155 232.809L29.674 232.936C26.0505 233.085 23.8255 233.489 20.7531 234.55C16.1972 236.144 12.5313 238.458 9.07736 241.942C3.69508 247.337 0.643676 253.922 0.0928101 261.249C-0.394521 267.665 1.04629 273.952 4.20358 279.325C8.46284 286.611 15.7097 291.922 23.9103 293.834C32.5129 295.851 41.943 293.983 49.0412 288.863C50.8006 287.588 54.7418 283.999 54.7418 283.659C54.7418 283.553 55.1235 282.958 55.6111 282.364C59.3615 277.606 61.7132 270.787 61.8191 264.288L61.861 261.802L91.4848 232.277L121.109 202.753H123.588C131.979 202.753 139.671 199.524 145.54 193.513ZM134.109 182.73C136.545 180.138 137.838 177.377 138.199 174.085C138.749 169.157 137.054 164.59 133.494 161.213C131.629 159.429 129.786 158.324 127.519 157.602C125.124 156.838 122.794 156.753 118.513 157.262L115.017 157.687L100.078 142.797C98.1478 140.872 96.279 139.008 94.5417 137.276C88.8783 131.624 84.617 127.373 84.2272 127.015L83.2951 126.165L83.6338 123.128C84.1004 119.008 84.0585 116.756 83.55 114.738C82.4899 110.575 79.5028 106.858 75.7094 104.988C72.3186 103.31 69.5433 102.865 66.2164 103.438C62.7837 104.033 60.1772 105.392 57.7615 107.855C55.2189 110.469 53.9052 113.187 53.4595 116.841C52.5484 124.191 57.5497 131.454 64.8178 133.302C66.8518 133.834 69.5223 133.855 73.6114 133.388L76.6205 133.047L92.4064 148.872L108.214 164.718L107.855 168.604C107.515 172.173 107.515 172.768 107.812 175.784C107.982 177.59 108.129 179.183 108.129 179.31C108.129 179.438 92.3005 195.326 72.9551 214.633L37.7795 249.745L34.5586 249.383C30.0026 248.873 27.2054 249.001 24.8745 249.871C16.1444 253.142 12.2454 262.829 16.3351 271.154C17.1402 272.833 17.6276 273.47 19.1321 274.978C22.1834 278.037 25.1713 279.396 29.3032 279.587C37.5887 279.991 44.3901 274.342 45.4071 266.228C45.577 264.74 45.5561 263.763 45.1954 260.62L44.7718 256.817L79.7775 221.813L114.805 186.808L116.288 186.935C117.114 186.999 118.937 187.169 120.335 187.318C126.268 187.954 130.549 186.531 134.109 182.73ZM121.077 168.159C124.107 167.798 125.739 168.37 126.692 170.155C127.688 171.982 127.455 173.83 126.056 175.231C124.807 176.506 123.917 176.718 121.183 176.399L119 176.145L118.852 174.744C118.682 172.959 118.682 171.302 118.852 169.688L119 168.413L121.077 168.159ZM71.2806 115.142C71.7682 115.482 72.3616 116.118 72.5734 116.543C72.7852 116.968 72.997 117.775 73.061 118.349C73.1668 119.772 72.8271 122.279 72.5094 122.49C72.0009 122.809 68.2924 122.958 67.4243 122.703C64.1603 121.726 63.461 117.372 66.2374 115.163C67.0007 114.546 67.1904 114.504 68.7171 114.504C70.2205 114.504 70.4544 114.568 71.2806 115.142ZM31.7402 260.258C32.969 260.365 34.007 260.513 34.071 260.577C34.135 260.62 34.2188 261.766 34.2828 263.104C34.4096 265.781 34.2828 266.333 33.2018 267.396C31.8042 268.776 29.9814 269.074 28.1802 268.202C24.8957 266.609 25.1501 261.724 28.604 260.407C29.4092 260.088 29.8542 260.067 31.7402 260.258Z" fill="black"/>
<path fill-rule="evenodd" clip-rule="evenodd" d="M193.526 199.743C188.236 194.573 181.588 191.521 174.302 190.949C168.461 190.504 162.132 191.84 157.161 194.573C147.135 200.103 140.976 210.465 140.955 221.886V224.112L130.482 234.516L120.033 244.941L116.845 245.068C112.003 245.238 108.625 246.128 104.207 248.395C101.085 250.005 98.6426 251.827 96.1361 254.455C91.9098 258.863 89.0205 264.479 87.9372 270.412C87.4275 273.166 87.4275 278.718 87.9162 281.324C90.3796 294.038 99.726 303.574 112.343 306.265C115.295 306.879 120.754 306.943 123.855 306.35C130.227 305.163 135.474 302.387 140.126 297.768C146.031 291.855 149.238 284.27 149.238 276.154V273.696L159.731 263.228L170.203 252.782L171.753 252.761L173.304 252.718L203.063 282.553L232.82 312.368L232.948 315.61C233.096 319.233 233.5 321.458 234.562 324.53C236.155 329.087 238.471 332.753 241.954 336.206C247.35 341.588 253.933 344.64 261.262 345.191C267.677 345.678 273.964 344.238 279.338 341.08C286.623 336.821 291.933 329.574 293.845 321.373C295.863 312.771 293.994 303.34 288.875 296.242C287.601 294.483 284.011 290.542 283.671 290.542C283.564 290.542 282.97 290.161 282.375 289.674C277.617 285.922 270.799 283.57 264.299 283.464L261.814 283.423L232.29 253.799L202.765 224.175V221.696C202.765 213.304 199.536 205.612 193.526 199.743ZM182.701 211.167C180.11 208.73 177.349 207.437 174.057 207.076C169.129 206.526 164.563 208.221 161.185 211.781C159.401 213.645 158.296 215.489 157.574 217.756C156.809 220.151 156.724 222.482 157.234 226.763L157.659 230.258L142.769 245.197C140.845 247.126 138.981 248.995 137.249 250.732C131.597 256.397 127.345 260.658 126.988 261.047L126.137 261.98L123.1 261.64C118.979 261.175 116.728 261.217 114.71 261.725C110.547 262.785 106.83 265.772 104.96 269.566C103.282 272.957 102.836 275.732 103.41 279.059C104.005 282.492 105.364 285.098 107.828 287.514C110.441 290.056 113.159 291.37 116.813 291.816C124.162 292.727 131.427 287.726 133.275 280.458C133.805 278.424 133.826 275.753 133.36 271.664L133.02 268.655L148.844 252.868L164.689 237.061L168.576 237.42C172.145 237.76 172.74 237.76 175.756 237.464C177.562 237.294 179.155 237.145 179.281 237.145C179.409 237.145 195.298 252.974 214.605 272.32L249.716 307.496L249.356 310.717C248.845 315.272 248.973 318.07 249.843 320.401C253.114 329.131 262.8 333.029 271.127 328.94C272.805 328.135 273.442 327.648 274.95 326.143C278.009 323.092 279.368 320.104 279.559 315.972C279.963 307.687 274.313 300.885 266.199 299.867C264.712 299.698 263.735 299.719 260.592 300.08L256.789 300.504L221.784 265.498L186.78 230.47L186.907 228.988C186.971 228.16 187.141 226.338 187.29 224.939C187.927 219.007 186.504 214.726 182.701 211.167ZM168.13 224.198C167.77 221.168 168.343 219.537 170.127 218.582C171.954 217.587 173.802 217.82 175.204 219.219C176.478 220.469 176.69 221.359 176.372 224.092L176.118 226.275L174.715 226.423C172.93 226.593 171.274 226.593 169.659 226.423L168.385 226.275L168.13 224.198ZM115.114 273.995C115.454 273.507 116.09 272.914 116.515 272.702C116.941 272.49 117.747 272.278 118.321 272.214C119.744 272.108 122.25 272.448 122.463 272.766C122.781 273.274 122.93 276.982 122.675 277.851C121.698 281.114 117.343 281.813 115.135 279.038C114.519 278.275 114.476 278.084 114.476 276.558C114.476 275.054 114.54 274.821 115.114 273.995ZM260.231 313.535C260.337 312.306 260.486 311.267 260.549 311.204C260.592 311.14 261.739 311.055 263.077 310.993C265.752 310.865 266.305 310.993 267.368 312.072C268.748 313.471 269.046 315.293 268.174 317.095C266.581 320.38 261.696 320.125 260.379 316.671C260.06 315.866 260.039 315.421 260.231 313.535Z" fill="black"/>
<path fill-rule="evenodd" clip-rule="evenodd" d="M198.266 151.344C193.096 156.634 190.045 163.282 189.472 170.567C189.028 176.409 190.362 182.738 193.096 187.709C198.627 197.735 208.988 203.894 220.41 203.915H222.635L233.039 214.387L243.464 224.837L243.592 228.024C243.761 232.866 244.651 236.244 246.919 240.661C248.529 243.784 250.351 246.227 252.979 248.733C257.386 252.96 263.001 255.849 268.935 256.932C271.689 257.442 277.241 257.442 279.847 256.953C292.561 254.49 302.097 245.144 304.787 232.526C305.403 229.574 305.466 224.115 304.872 221.014C303.687 214.642 300.91 209.395 296.291 204.743C290.379 198.839 282.792 195.631 274.677 195.631H272.218L261.752 185.138L251.304 174.667L251.283 173.117L251.24 171.566L281.076 141.807L310.891 112.049L314.133 111.921C317.756 111.773 319.981 111.37 323.054 110.307C327.61 108.714 331.275 106.399 334.729 102.916C340.112 97.52 343.163 90.9361 343.713 83.6075C344.201 77.1924 342.76 70.9053 339.603 65.5316C335.343 58.2461 328.097 52.9364 319.896 51.0246C311.293 49.0068 301.863 50.8756 294.765 55.9945C293.007 57.2686 289.066 60.8585 289.066 61.1982C289.066 61.3053 288.684 61.8999 288.196 62.4945C284.446 67.2526 282.093 74.0704 281.987 80.5705L281.945 83.056L252.321 112.58L222.698 142.105H220.219C211.828 142.105 204.135 145.334 198.266 151.344ZM209.664 162.129C207.227 164.72 205.934 167.481 205.575 170.773C205.023 175.701 206.718 180.267 210.278 183.645C212.143 185.429 213.987 186.534 216.253 187.256C218.648 188.021 220.979 188.106 225.26 187.596L228.755 187.171L243.695 202.061C245.623 203.985 247.492 205.848 249.228 207.58C254.893 213.232 259.155 217.485 259.545 217.842L260.477 218.692L260.139 221.73C259.672 225.85 259.714 228.102 260.222 230.12C261.283 234.283 264.271 238 268.063 239.869C271.454 241.547 274.229 241.994 277.556 241.42C280.989 240.825 283.595 239.466 286.011 237.002C288.554 234.389 289.867 231.67 290.313 228.017C291.224 220.668 286.223 213.403 278.955 211.555C276.921 211.025 274.251 211.004 270.161 211.47L267.152 211.81L251.366 195.986L235.558 180.141L235.918 176.253C236.257 172.685 236.257 172.09 235.961 169.074C235.791 167.268 235.643 165.675 235.643 165.547C235.643 165.421 251.472 149.532 270.819 130.224L305.993 95.1136L309.214 95.4743C313.77 95.984 316.567 95.8572 318.898 94.9856C327.628 91.7146 331.528 82.0297 327.438 73.7027C326.632 72.0247 326.145 71.387 324.64 69.879C321.589 66.8209 318.601 65.4618 314.469 65.2698C306.184 64.8672 299.382 70.5166 298.365 78.6307C298.195 80.1178 298.216 81.0941 298.577 84.2382L299.001 88.0398L263.995 123.046L228.968 158.05L227.485 157.922C226.659 157.859 224.836 157.689 223.438 157.54C217.504 156.903 213.223 158.326 209.664 162.129ZM222.695 176.7C219.665 177.06 218.034 176.487 217.081 174.703C216.085 172.876 216.317 171.028 217.716 169.626C218.966 168.352 219.856 168.139 222.589 168.458L224.772 168.712L224.92 170.115C225.09 171.898 225.09 173.555 224.92 175.169L224.772 176.445L222.695 176.7ZM272.492 229.716C272.004 229.376 271.411 228.739 271.199 228.314C270.987 227.889 270.776 227.083 270.712 226.509C270.606 225.086 270.945 222.579 271.263 222.367C271.772 222.048 275.48 221.9 276.348 222.155C279.612 223.131 280.312 227.485 277.535 229.695C276.773 230.311 276.582 230.354 275.057 230.354C273.552 230.354 273.318 230.29 272.492 229.716ZM312.032 84.599C310.803 84.4931 309.765 84.3441 309.701 84.2813C309.637 84.2382 309.554 83.0909 309.49 81.7527C309.363 79.0763 309.49 78.5248 310.571 77.4624C311.969 76.0823 313.792 75.7844 315.593 76.6548C318.877 78.2478 318.623 83.1339 315.168 84.4512C314.363 84.7689 313.918 84.791 312.032 84.599Z" fill="black"/>
</svg>
