<svg width="153" height="24" viewBox="0 0 153 24" fill="none" xmlns="http://www.w3.org/2000/svg">
<g clip-path="url(#clip0_1477_2078)">
<mask id="mask0_1477_2078" style="mask-type:luminance" maskUnits="userSpaceOnUse" x="0" y="0" width="153" height="24">
<path d="M153 0H0V24H153V0Z" fill="white"/>
</mask>
<g mask="url(#mask0_1477_2078)">
<path d="M147.735 18.1097V13.4413H153V18.2663C153 21.1802 151.546 24 147.315 24H146.378C141.888 24 140.466 21.4308 140.466 17.8277V5.98433C140.466 2.63185 142.017 0 146.346 0H147.315C151.579 0 153 2.3812 153 5.4517V9.27415H147.735V5.67102C147.735 4.91906 147.541 4.51175 146.862 4.51175C146.184 4.51175 145.99 4.82506 145.99 5.67102V18.1097C145.99 18.893 146.216 19.3316 146.895 19.3316C147.541 19.3316 147.735 18.8303 147.735 18.1097Z" fill="black"/>
<path d="M139.362 0.313232V23.6239H134.032V0.313232H139.362Z" fill="black"/>
<path d="M121.848 0.31311H133.154V5.13818H130.15V23.6238H124.852V5.13818H121.848V0.31311Z" fill="black"/>
<path d="M114.572 0H115.767C119.676 0 121.097 1.84856 121.097 4.7624V7.55091H115.961V5.04438C115.961 4.41775 115.8 4.04178 115.154 4.04178C114.54 4.04178 114.346 4.41775 114.346 5.07572V5.67102C114.346 6.64229 114.572 7.20626 115.509 8.05222L118.255 10.4334C120.677 12.5953 121.42 14.1619 121.42 16.6997V17.859C121.42 21.4935 119.579 23.9373 115.477 23.9373H114.314C110.599 23.9373 108.725 22.2141 108.725 18.799V15.0705H113.958V18.2976C113.958 19.0809 114.184 19.5196 114.863 19.5196C115.509 19.5196 115.735 19.0496 115.735 18.141V17.5144C115.735 16.1984 115.638 15.6031 114.475 14.5692L111.697 12.1567C109.662 10.4021 108.951 8.52219 108.951 6.14099V5.04438C108.951 1.94256 110.825 0 114.572 0Z" fill="black"/>
<path d="M107.847 0.313232V23.6239H102.517V0.313232H107.847Z" fill="black"/>
<path d="M86.2393 23.6238V0.31311H92.6031L93.9275 11.2165L95.3165 0.31311H101.325V23.6238H96.7379V10.9032L94.7028 23.6238H92.7969L90.7618 10.9032V23.6238H86.2393Z" fill="black"/>
<path d="M85.0708 0.313232V23.6239H79.7407V0.313232H85.0708Z" fill="black"/>
<path d="M72.0159 0H73.2111C77.1198 0 78.5412 1.84856 78.5412 4.7624V7.55091H73.4049V5.04438C73.4049 4.41775 73.2434 4.04178 72.5974 4.04178C71.9836 4.04178 71.7898 4.41775 71.7898 5.07572V5.67102C71.7898 6.64229 72.0159 7.20626 72.9527 8.05222L75.6985 10.4334C78.1213 12.5953 78.8642 14.1619 78.8642 16.6997V17.859C78.8642 21.4935 77.0229 23.9373 72.9204 23.9373H71.7575C68.0426 23.9373 66.1689 22.2141 66.1689 18.799V15.0705H71.4021V18.2976C71.4021 19.0809 71.6282 19.5196 72.3066 19.5196C72.9527 19.5196 73.1788 19.0496 73.1788 18.141V17.5144C73.1788 16.1984 73.0819 15.6031 71.919 14.5692L69.1409 12.1567C67.1058 10.4021 66.3951 8.52219 66.3951 6.14099V5.04438C66.3951 1.94256 68.2687 0 72.0159 0Z" fill="black"/>
<path d="M58.6721 0H59.8674C63.7761 0 65.1975 1.84856 65.1975 4.7624V7.55091H60.0612V5.04438C60.0612 4.41775 59.8997 4.04178 59.2536 4.04178C58.6398 4.04178 58.446 4.41775 58.446 5.07572V5.67102C58.446 6.64229 58.6721 7.20626 59.6089 8.05222L62.3547 10.4334C64.7775 12.5953 65.5205 14.1619 65.5205 16.6997V17.859C65.5205 21.4935 63.6792 23.9373 59.5766 23.9373H58.4137C54.6988 23.9373 52.8252 22.2141 52.8252 18.799V15.0705H58.0584V18.2976C58.0584 19.0809 58.2845 19.5196 58.9629 19.5196C59.6089 19.5196 59.8351 19.0496 59.8351 18.141V17.5144C59.8351 16.1984 59.7382 15.6031 58.5752 14.5692L55.7971 12.1567C53.762 10.4021 53.0513 8.52219 53.0513 6.14099V5.04438C53.0513 1.94256 54.9249 0 58.6721 0Z" fill="black"/>
<path d="M42.0747 0.31311H52.0565V5.13818H47.3402V9.11729H51.1197V14.0677H47.3402V18.7048H52.2503V23.6238H42.0747V0.31311Z" fill="black"/>
<path d="M36.7379 14.6317H34.186V23.6238H28.8882V0.31311H36.5764C39.7745 0.31311 41.0989 1.87969 41.0989 5.01285V9.83792C41.0989 12.8771 39.4837 14.6317 36.7379 14.6317ZM34.186 4.38622V10.3392H34.832C35.6073 10.3392 35.7688 9.93191 35.7688 9.21128V5.54549C35.7688 4.82486 35.6396 4.38622 34.832 4.38622H34.186Z" fill="black"/>
<mask id="mask1_1477_2078" style="mask-type:luminance" maskUnits="userSpaceOnUse" x="0" y="0" width="25" height="24">
<path d="M24.2287 0H0V24H24.2287V0Z" fill="white"/>
</mask>
<g mask="url(#mask1_1477_2078)">
<path fill-rule="evenodd" clip-rule="evenodd" d="M5.50662 4.37875C5.3425 4.52459 5.32533 4.77331 5.4679 4.93991L9.35043 9.4771L8.62299 10.1515L5.25008 6.91581C5.11266 6.78398 4.89572 6.77988 4.75332 6.90641C4.60683 7.03658 4.59116 7.25845 4.71793 7.40755L8.16494 11.4617L7.42652 12.125L4.73523 9.39339C4.6333 9.28993 4.46715 9.28446 4.35852 9.38099C4.25318 9.47459 4.23777 9.63251 4.32306 9.74437L6.65579 12.8036C7.04281 13.3111 7.39051 13.847 7.69589 14.4065L7.93959 14.853C8.33765 13.9299 8.586 12.9474 8.67378 11.9425L8.67932 11.8793L9.6731 11.9645L9.66758 12.0277C9.55145 13.3567 9.18088 14.6507 8.57608 15.8394L13.4335 19.1965C14.1813 19.0643 14.8738 18.7314 15.4328 18.2348L15.4652 18.2059L16.1313 18.9414L16.0988 18.9703C15.5755 19.4354 14.96 19.7843 14.294 19.9991L17.4005 23.7363L16.6166 24.3474L13.2357 20.2646L7.65359 16.4066L6.81842 14.8765C6.53697 14.3608 6.21652 13.8669 5.85982 13.3991L3.52709 10.3399C3.12938 9.81833 3.20125 9.08192 3.69246 8.64546C3.85005 8.50542 4.03361 8.41142 4.22605 8.36289L3.95497 8.04406C3.48112 7.48675 3.53969 6.65742 4.08726 6.17088C4.32618 5.95859 4.62123 5.84467 4.92034 5.82817L4.70697 5.57882C4.21523 5.00417 4.27444 4.14624 4.84056 3.64322C5.39534 3.15027 6.24217 3.17227 6.7701 3.69334L6.93267 3.85379C6.96156 3.53188 7.10923 3.22023 7.37003 2.98851C7.87869 2.53654 8.65009 2.53913 9.15564 2.99451L12.7294 6.21363C12.8055 6.04562 12.9174 5.89086 13.0634 5.76112C13.5917 5.29174 14.3947 5.3012 14.9117 5.7829L17.8627 8.53327C18.3592 8.99603 18.6487 9.63593 18.667 10.311L18.7805 14.4989L22.5136 16.621L24.2357 17.1951V18.255L22.0824 17.5151L18.4115 15.4283C18.0675 16.0685 17.5715 16.6222 16.9604 17.0384L16.9035 17.0772L16.3382 16.263L16.3953 16.2243C17.0505 15.778 17.5366 15.1297 17.7794 14.3824L17.6698 10.3375C17.6587 9.92565 17.4821 9.53523 17.1792 9.25291L14.2281 6.50254C14.0886 6.37258 13.872 6.37002 13.7295 6.49666C13.5936 6.61742 13.5674 6.81856 13.668 6.96951L14.7644 8.61501L14.8859 9.56312L13.9511 9.85802L12.6858 7.50988L8.48455 3.72554C8.35759 3.61118 8.16384 3.61052 8.03609 3.72404C7.90348 3.84186 7.88735 4.04197 7.99941 4.17916L11.0823 7.95341L10.3425 8.61413L6.06603 4.39329C5.91298 4.24221 5.66746 4.23584 5.50662 4.37875ZM11.495 11.6944L11.1243 14.6877L10.1342 14.5674L10.505 11.5741L11.495 11.6944ZM13.9669 12.6152L14.3206 14.2574L13.3452 14.4636L12.9913 12.8214L13.9669 12.6152Z" fill="black"/>
</g>
<path fill-rule="evenodd" clip-rule="evenodd" d="M0 0H24.2287V24H0V0ZM1.12691 1.11628V22.8837H23.1017V1.11628H1.12691Z" fill="black"/>
</g>
</g>
<defs>
<clipPath id="clip0_1477_2078">
<rect width="153" height="24" fill="white"/>
</clipPath>
</defs>
</svg>
