<svg width="868" height="75" viewBox="0 0 868 75" fill="none" xmlns="http://www.w3.org/2000/svg">
<g clip-path="url(#clip0_1439_2106)">
<path d="M161.5 20C162.767 20 163.834 20.2667 164.7 20.8C165.567 21.3 166.417 22.3 167.25 23.8L183.8 53.85C183.967 54.1833 184 54.4667 183.9 54.7C183.834 54.9 183.6 55 183.2 55H176.85C176.284 55 175.9 54.7833 175.7 54.35L172.15 47.9H148.65L145.2 54.35C144.967 54.7833 144.584 55 144.05 55H137.55C137.117 55 136.85 54.9 136.75 54.7C136.684 54.4667 136.734 54.1833 136.9 53.85L153.3 23.8C154.134 22.3 154.95 21.3 155.75 20.8C156.55 20.2667 157.484 20 158.55 20H161.5ZM151.8 42.1H169L161.05 27.45C160.917 27.2167 160.734 27.1 160.5 27.1H160.2C159.967 27.1 159.784 27.2167 159.65 27.45L151.8 42.1Z" fill="#2D374B"/>
<path d="M231.381 20C235.214 20 237.964 20.8667 239.631 22.6C241.297 24.3333 242.131 26.9 242.131 30.3V33.15C242.131 36.0167 241.547 38.2833 240.381 39.95C239.214 41.6167 237.314 42.6833 234.681 43.15L243.231 53.75C243.397 53.9167 243.447 54.1667 243.381 54.5C243.314 54.8333 243.047 55 242.581 55H236.131C235.697 55 235.397 54.95 235.231 54.85C235.064 54.75 234.897 54.5833 234.731 54.35L226.831 43.95H210.681V53.9C210.681 54.6333 210.314 55 209.581 55H204.181C203.414 55 203.031 54.6333 203.031 53.9V21.5C203.031 20.5 203.531 20 204.531 20H231.381ZM210.681 37.85H229.831C231.531 37.85 232.731 37.4833 233.431 36.75C234.131 36.0167 234.481 34.9 234.481 33.4V31.3C234.481 29.8 234.131 28.6833 233.431 27.95C232.731 27.2167 231.531 26.85 229.831 26.85H211.331C210.897 26.85 210.681 27.05 210.681 27.45V37.85Z" fill="#2D374B"/>
<path d="M293.594 20C297.028 20 299.461 20.6833 300.894 22.05C302.361 23.4167 303.094 25.4833 303.094 28.25V30.65C303.094 33.45 302.028 35.5667 299.894 37C302.194 38.3333 303.344 40.4833 303.344 43.45V46.35C303.344 47.6833 303.194 48.8833 302.894 49.95C302.594 51.0167 302.094 51.9333 301.394 52.7C300.728 53.4333 299.828 54 298.694 54.4C297.561 54.8 296.161 55 294.494 55H264.794C263.794 55 263.294 54.5 263.294 53.5V21.5C263.294 20.5 263.794 20 264.794 20H293.594ZM270.944 40V47.45C270.944 47.8833 271.161 48.1 271.594 48.1H292.094C293.428 48.1 294.378 47.8667 294.944 47.4C295.511 46.9 295.794 46.1167 295.794 45.05V43.15C295.794 42.1167 295.478 41.3333 294.844 40.8C294.244 40.2667 293.111 40 291.444 40H270.944ZM270.944 34.55H291.444C293.111 34.55 294.244 34.3 294.844 33.8C295.444 33.3 295.744 32.5667 295.744 31.6V29.9C295.744 28.8667 295.444 28.1167 294.844 27.65C294.278 27.15 293.344 26.9 292.044 26.9H271.594C271.161 26.9 270.944 27.1167 270.944 27.55V34.55Z" fill="#2D374B"/>
<path d="M330.792 20C331.525 20 331.892 20.3667 331.892 21.1V53.9C331.892 54.6333 331.525 55 330.792 55H325.392C324.625 55 324.242 54.6333 324.242 53.9V21.1C324.242 20.3667 324.625 20 325.392 20H330.792Z" fill="#2D374B"/>
<path d="M391.598 20C392.365 20 392.748 20.3667 392.748 21.1V26C392.748 26.7667 392.365 27.15 391.598 27.15H375.898V53.9C375.898 54.6333 375.532 55 374.798 55H369.348C368.615 55 368.248 54.6333 368.248 53.9V27.15H352.548C351.782 27.15 351.398 26.7667 351.398 26V21.1C351.398 20.3667 351.782 20 352.548 20H391.598Z" fill="#2D374B"/>
<path d="M440.551 20C444.384 20 447.134 20.8667 448.801 22.6C450.467 24.3333 451.301 26.9 451.301 30.3V33.15C451.301 36.0167 450.717 38.2833 449.551 39.95C448.384 41.6167 446.484 42.6833 443.851 43.15L452.401 53.75C452.567 53.9167 452.617 54.1667 452.551 54.5C452.484 54.8333 452.217 55 451.751 55H445.301C444.867 55 444.567 54.95 444.401 54.85C444.234 54.75 444.067 54.5833 443.901 54.35L436.001 43.95H419.851V53.9C419.851 54.6333 419.484 55 418.751 55H413.351C412.584 55 412.201 54.6333 412.201 53.9V21.5C412.201 20.5 412.701 20 413.701 20H440.551ZM419.851 37.85H439.001C440.701 37.85 441.901 37.4833 442.601 36.75C443.301 36.0167 443.651 34.9 443.651 33.4V31.3C443.651 29.8 443.301 28.6833 442.601 27.95C441.901 27.2167 440.701 26.85 439.001 26.85H420.501C420.067 26.85 419.851 27.05 419.851 27.45V37.85Z" fill="#2D374B"/>
<path d="M478.524 20C479.257 20 479.624 20.3667 479.624 21.1V41.05C479.624 42.3833 479.724 43.5 479.924 44.4C480.157 45.2667 480.524 45.9667 481.024 46.5C481.524 47 482.19 47.3667 483.024 47.6C483.89 47.8 484.974 47.9 486.274 47.9H500.124C501.424 47.9 502.49 47.8 503.324 47.6C504.19 47.3667 504.874 47 505.374 46.5C505.874 45.9667 506.224 45.2667 506.424 44.4C506.624 43.5 506.724 42.3833 506.724 41.05V21.1C506.724 20.3667 507.09 20 507.824 20H513.274C514.007 20 514.374 20.3667 514.374 21.1V41.8C514.374 44.2 514.124 46.25 513.624 47.95C513.124 49.6167 512.307 50.9833 511.174 52.05C510.074 53.0833 508.624 53.8333 506.824 54.3C505.057 54.7667 502.907 55 500.374 55H485.974C483.44 55 481.29 54.7667 479.524 54.3C477.757 53.8333 476.307 53.0833 475.174 52.05C474.074 50.9833 473.257 49.6167 472.724 47.95C472.224 46.25 471.974 44.2 471.974 41.8V21.1C471.974 20.3667 472.357 20 473.124 20H478.524Z" fill="#2D374B"/>
<path d="M545.802 20C546.535 20 547.168 20.05 547.702 20.15C548.235 20.25 548.702 20.45 549.102 20.75C549.502 21.0167 549.852 21.4 550.152 21.9C550.485 22.3667 550.818 23 551.152 23.8L561.552 47.8C561.685 48.1 561.918 48.25 562.252 48.25H562.852C563.185 48.25 563.418 48.1 563.552 47.8L573.952 23.8C574.285 23 574.602 22.3667 574.902 21.9C575.235 21.4 575.602 21.0167 576.002 20.75C576.402 20.45 576.852 20.25 577.352 20.15C577.885 20.05 578.518 20 579.252 20H584.602C586.335 20 587.502 20.4 588.102 21.2C588.702 21.9667 589.002 23.3 589.002 25.2V53.9C589.002 54.6333 588.618 55 587.852 55H582.752C582.018 55 581.652 54.6333 581.652 53.9V27.8C581.652 27.4667 581.518 27.3 581.252 27.3H580.802C580.468 27.3 580.252 27.4333 580.152 27.7L570.052 50.1C569.652 51 569.235 51.7667 568.802 52.4C568.402 53 567.952 53.5 567.452 53.9C566.985 54.3 566.435 54.5833 565.802 54.75C565.202 54.9167 564.485 55 563.652 55H561.252C560.418 55 559.685 54.9167 559.052 54.75C558.452 54.5833 557.902 54.3 557.402 53.9C556.935 53.5 556.485 53 556.052 52.4C555.652 51.7667 555.252 51 554.852 50.1L544.752 27.7C544.652 27.4333 544.435 27.3 544.102 27.3H543.652C543.385 27.3 543.252 27.4667 543.252 27.8V53.9C543.252 54.6333 542.885 55 542.152 55H537.052C536.285 55 535.902 54.6333 535.902 53.9V25.2C535.902 23.3 536.202 21.9667 536.802 21.2C537.402 20.4 538.585 20 540.352 20H545.802Z" fill="#2D374B"/>
<path d="M651.267 20C652.067 20 652.733 20.0333 653.267 20.1C653.8 20.1667 654.267 20.3167 654.667 20.55C655.067 20.75 655.45 21.05 655.817 21.45C656.183 21.8167 656.6 22.3167 657.067 22.95L675.667 47.35C675.8 47.5833 676.017 47.7 676.317 47.7H676.767C677.033 47.7 677.167 47.5333 677.167 47.2V21.1C677.167 20.3667 677.533 20 678.267 20H683.517C684.25 20 684.617 20.3667 684.617 21.1V49.8C684.617 51.8333 684.25 53.2167 683.517 53.95C682.783 54.65 681.65 55 680.117 55H675.817C675.05 55 674.4 54.9667 673.867 54.9C673.367 54.8333 672.917 54.7 672.517 54.5C672.117 54.3 671.717 54.0167 671.317 53.65C670.95 53.25 670.517 52.7167 670.017 52.05L651.367 27.65C651.167 27.4167 650.95 27.3 650.717 27.3H650.267C650 27.3 649.867 27.4667 649.867 27.8V53.9C649.867 54.6333 649.5 55 648.767 55H643.517C642.75 55 642.367 54.6333 642.367 53.9V25.2C642.367 23.1667 642.733 21.8 643.467 21.1C644.2 20.3667 645.333 20 646.867 20H651.267Z" fill="#2D374B"/>
<path d="M735.294 20C737.827 20 739.977 20.25 741.744 20.75C743.544 21.2167 744.994 21.9833 746.094 23.05C747.227 24.0833 748.044 25.4333 748.544 27.1C749.044 28.7667 749.294 30.8 749.294 33.2V41.8C749.294 44.2 749.044 46.25 748.544 47.95C748.044 49.6167 747.227 50.9833 746.094 52.05C744.994 53.0833 743.544 53.8333 741.744 54.3C739.977 54.7667 737.827 55 735.294 55H719.844C717.31 55 715.16 54.7667 713.394 54.3C711.627 53.8333 710.177 53.0833 709.044 52.05C707.944 50.9833 707.127 49.6167 706.594 47.95C706.094 46.25 705.844 44.2 705.844 41.8V33.2C705.844 30.8 706.094 28.7667 706.594 27.1C707.127 25.4333 707.944 24.0833 709.044 23.05C710.177 21.9833 711.627 21.2167 713.394 20.75C715.16 20.25 717.31 20 719.844 20H735.294ZM713.494 41.25C713.494 42.55 713.594 43.65 713.794 44.55C714.027 45.4167 714.394 46.1167 714.894 46.65C715.394 47.15 716.06 47.5167 716.894 47.75C717.76 47.95 718.844 48.05 720.144 48.05H734.994C736.294 48.05 737.36 47.95 738.194 47.75C739.06 47.5167 739.744 47.15 740.244 46.65C740.744 46.1167 741.094 45.4167 741.294 44.55C741.527 43.65 741.644 42.55 741.644 41.25V33.75C741.644 32.45 741.527 31.3667 741.294 30.5C741.094 29.6 740.744 28.9 740.244 28.4C739.744 27.8667 739.06 27.5 738.194 27.3C737.36 27.0667 736.294 26.95 734.994 26.95H720.144C718.844 26.95 717.76 27.0667 716.894 27.3C716.06 27.5 715.394 27.8667 714.894 28.4C714.394 28.9 714.027 29.6 713.794 30.5C713.594 31.3667 713.494 32.45 713.494 33.75V41.25Z" fill="#2D374B"/>
<path d="M773.059 20C773.393 20 773.626 20.05 773.759 20.15C773.926 20.25 774.076 20.4167 774.209 20.65L788.859 47.55C788.959 47.7833 789.159 47.9 789.459 47.9H789.709C789.943 47.9 790.126 47.7833 790.259 47.55L804.709 20.65C804.909 20.2167 805.293 20 805.859 20H812.409C812.809 20 813.043 20.1167 813.109 20.35C813.209 20.55 813.176 20.8167 813.009 21.15L796.609 51.2C795.776 52.7333 794.959 53.75 794.159 54.25C793.359 54.75 792.426 55 791.359 55H788.459C787.159 55 786.076 54.75 785.209 54.25C784.376 53.75 783.543 52.7333 782.709 51.2L766.109 21.15C765.943 20.8167 765.893 20.55 765.959 20.35C766.059 20.1167 766.326 20 766.759 20H773.059Z" fill="#2D374B"/>
<path d="M844.918 20C846.185 20 847.252 20.2667 848.118 20.8C848.985 21.3 849.835 22.3 850.668 23.8L867.218 53.85C867.385 54.1833 867.418 54.4667 867.318 54.7C867.252 54.9 867.018 55 866.618 55H860.268C859.702 55 859.318 54.7833 859.118 54.35L855.568 47.9H832.068L828.618 54.35C828.385 54.7833 828.002 55 827.468 55H820.968C820.535 55 820.268 54.9 820.168 54.7C820.102 54.4667 820.152 54.1833 820.318 53.85L836.718 23.8C837.552 22.3 838.368 21.3 839.168 20.8C839.968 20.2667 840.902 20 841.968 20H844.918ZM835.218 42.1H852.418L844.468 27.45C844.335 27.2167 844.152 27.1 843.918 27.1H843.618C843.385 27.1 843.202 27.2167 843.068 27.45L835.218 42.1Z" fill="#2D374B"/>
<mask id="mask0_1439_2106" style="mask-type:luminance" maskUnits="userSpaceOnUse" x="0" y="0" width="110" height="75">
<path d="M110 0H0V75H110V0Z" fill="white"/>
</mask>
<g mask="url(#mask0_1439_2106)">
<path d="M38.1609 0H28.0865C27.3908 0 26.7698 0.436252 26.5311 1.09146L0.0508084 73.8854C-0.146092 74.427 0.253758 75 0.828508 75H10.9029C11.5986 75 12.2196 74.5637 12.4583 73.9091L38.9386 1.11462C39.1355 0.573028 38.7356 0 38.1609 0ZM50.4143 30.5012C50.1498 29.7738 49.124 29.7738 48.8589 30.5012L43.6361 44.8606C43.5025 45.2279 43.5025 45.6311 43.6361 45.9984L53.7891 73.9085C54.0273 74.5637 54.6488 74.9995 55.3445 74.9995H65.4189C65.9936 74.9995 66.3935 74.4264 66.1966 73.8848L50.4143 30.5012ZM76.0966 44.5561C76.3611 45.2836 77.3869 45.2836 77.6514 44.5561L93.454 1.11462C93.6509 0.573028 93.2511 0 92.6763 0H82.602C81.9062 0 81.2853 0.4357 81.0466 1.09146L70.8732 29.0584C70.7396 29.4258 70.7396 29.8284 70.8732 30.1957L76.0966 44.5561ZM56.2328 1.08374C55.9968 0.432943 55.3797 0 54.6895 0H44.581C43.8858 0 43.2649 0.4357 43.0262 1.09091L16.5464 73.8854C16.3495 74.427 16.7494 75 17.3241 75H27.399C28.0948 75 28.7157 74.5643 28.9544 73.9091L49.2285 18.1737C49.3616 17.808 49.877 17.808 50.0095 18.1737L70.2842 73.9091C70.5223 74.5643 71.1438 75 71.8396 75H81.9145C82.4892 75 82.8891 74.427 82.6922 73.8859L56.2328 1.08374ZM109.172 0H99.0965C98.4013 0 97.7798 0.4357 97.5416 1.09091L79.1205 51.7314C78.9868 52.0987 78.9868 52.5013 79.1205 52.8686L84.3444 67.2291C84.6089 67.9565 85.6347 67.9565 85.8992 67.2291L104.134 17.0999L109.95 1.11407C110.147 0.573029 109.747 0 109.172 0Z" fill="#EF8220"/>
</g>
</g>
<defs>
<clipPath id="clip0_1439_2106">
<rect width="868" height="75" fill="white"/>
</clipPath>
</defs>
</svg>
