<svg width="1075" height="274" viewBox="0 0 1075 274" fill="none" xmlns="http://www.w3.org/2000/svg">
<path d="M9.18994 83.1899V190.5C9.18994 197.33 12.8299 203.65 18.7599 207.07L111.69 260.7C117.62 264.12 124.9 264.12 130.83 260.7L223.76 207.07C229.69 203.65 233.33 197.33 233.33 190.5V83.1899C233.33 76.3599 229.69 70.0399 223.76 66.6199L130.83 12.9899C124.9 9.56993 117.62 9.56993 111.69 12.9899L18.7599 66.6199C12.8799 70.0399 9.18994 76.3599 9.18994 83.1899Z" fill="#05163D"/>
<path d="M141.58 157.64L128.31 193.97C127.92 194.97 127.92 196.1 128.31 197.1L151.09 259.63L177.46 244.4L145.83 157.64C145.1 155.62 142.3 155.62 141.58 157.64Z" fill="#12AAFF"/>
<path d="M168.11 96.51C167.38 94.49 164.58 94.49 163.86 96.51L150.59 132.84C150.2 133.84 150.2 134.97 150.59 135.97L187.92 238.36L214.29 223.13L168.11 96.51Z" fill="#12AAFF"/>
<path d="M121.26 16.96C121.93 16.96 122.55 17.13 123.16 17.47L223.7 75.52C224.87 76.19 225.6 77.42 225.6 78.77V194.87C225.6 196.21 224.87 197.44 223.7 198.12L123.16 256.23C122.6 256.57 121.93 256.74 121.26 256.74C120.59 256.74 119.97 256.57 119.36 256.23L18.87 198.18C17.7 197.51 16.97 196.28 16.97 194.93V78.77C16.97 77.43 17.7 76.2 18.87 75.52L119.41 17.47C119.97 17.13 120.64 16.96 121.26 16.96ZM121.26 0C117.68 0 114.09 0.950003 110.9 2.8L10.36 60.85C3.98001 64.54 0 71.38 0 78.76V194.86C0 202.25 3.98001 209.13 10.36 212.83L110.9 270.88C114.09 272.73 117.67 273.68 121.26 273.68C124.85 273.68 128.43 272.73 131.62 270.88L232.16 212.83C238.6 209.13 242.52 202.31 242.52 194.86V78.76C242.52 71.37 238.54 64.49 232.16 60.79L131.67 2.8C128.42 0.950003 124.84 0 121.25 0H121.26Z" fill="#9DCCED"/>
<path d="M54.8198 238.47L64.0598 213.16L82.6498 228.61L65.2998 244.51L54.8298 238.47H54.8198Z" fill="#213147"/>
<path d="M112.81 70.47H87.3402C85.4402 70.47 83.7002 71.64 83.0902 73.43L28.4502 223.23L54.8202 238.46L115 73.49C115.51 72.04 114.44 70.47 112.81 70.47Z" fill="white"/>
<path d="M157.42 70.47H131.95C130.05 70.47 128.31 71.64 127.7 73.43L65.29 244.5L91.66 259.73L159.55 73.55C160.11 72.04 158.99 70.47 157.42 70.47Z" fill="white"/>
<path d="M350.91 101.65C353.43 101.65 355.61 102.16 357.35 103.22C359.09 104.28 360.82 106.3 362.5 109.32L395.75 169.66C396.09 170.34 396.14 170.89 395.98 171.34C395.81 171.79 395.31 172.01 394.53 172.01H381.77C380.65 172.01 379.87 171.56 379.47 170.72L372.36 157.79H325.17L318.23 170.72C317.78 171.62 317 172.01 315.93 172.01H302.89C302 172.01 301.49 171.78 301.32 171.34C301.15 170.89 301.21 170.33 301.55 169.66L334.52 109.32C336.2 106.3 337.82 104.28 339.45 103.22C341.07 102.16 342.92 101.65 345.05 101.65H350.93H350.91ZM331.37 146.05H365.96L350.01 116.61C349.73 116.16 349.39 115.88 348.89 115.88H348.27C347.82 115.88 347.43 116.11 347.15 116.61L331.36 146.05H331.37Z" fill="#05163D"/>
<path d="M468.81 101.66C476.53 101.66 482.02 103.4 485.38 106.87C488.74 110.34 490.42 115.49 490.42 122.32V128.03C490.42 133.79 489.25 138.33 486.89 141.69C484.53 145.05 480.73 147.18 475.41 148.13L492.6 169.4C492.94 169.74 493.05 170.24 492.88 170.91C492.77 171.58 492.21 171.92 491.26 171.92H478.33C477.44 171.92 476.88 171.81 476.54 171.64C476.2 171.41 475.86 171.08 475.53 170.64L459.63 149.76H427.17V169.75C427.17 171.2 426.44 171.94 424.98 171.94H414.12C412.55 171.94 411.82 171.21 411.82 169.75V104.7C411.82 102.68 412.83 101.68 414.84 101.68H468.8L468.81 101.66ZM427.22 137.54H465.68C469.1 137.54 471.5 136.81 472.9 135.36C474.3 133.91 475.03 131.66 475.03 128.64V124.44C475.03 121.42 474.3 119.18 472.9 117.72C471.5 116.27 469.09 115.53 465.68 115.53H428.51C427.61 115.53 427.22 115.92 427.22 116.76V137.53V137.54Z" fill="#05163D"/>
<path d="M574.44 101.66C581.33 101.66 586.25 103.06 589.16 105.8C592.07 108.54 593.52 112.69 593.52 118.22V123.03C593.52 128.63 591.39 132.88 587.08 135.79C591.67 138.47 594.02 142.79 594.02 148.72V154.54C594.02 157.23 593.74 159.63 593.12 161.77C592.5 163.9 591.55 165.75 590.16 167.26C588.76 168.77 586.97 169.94 584.67 170.73C582.37 171.52 579.58 171.96 576.22 171.96H516.54C514.52 171.96 513.52 170.95 513.52 168.94V104.68C513.52 102.66 514.53 101.66 516.54 101.66H574.43H574.44ZM528.93 130.88H570.13C573.49 130.88 575.73 130.37 576.96 129.37C578.19 128.36 578.75 126.9 578.75 124.95V121.53C578.75 119.46 578.19 117.95 577.01 116.94C575.84 115.99 573.93 115.49 571.36 115.49H530.27C529.37 115.49 528.98 115.94 528.98 116.78V130.89H528.92H528.93V130.88ZM528.93 141.85V156.8C528.93 157.7 529.38 158.09 530.22 158.09H571.42C574.1 158.09 576.01 157.58 577.13 156.64C578.25 155.69 578.87 154.12 578.87 152V148.19C578.87 146.12 578.25 144.55 577.02 143.49C575.79 142.43 573.49 141.87 570.13 141.87H528.93V141.85Z" fill="#05163D"/>
<path d="M631.48 101.66C632.93 101.66 633.66 102.39 633.66 103.85V169.74C633.66 171.19 632.93 171.92 631.48 171.92H620.62C619.05 171.92 618.32 171.19 618.32 169.74V103.91C618.32 102.46 619.1 101.72 620.62 101.72L631.48 101.66Z" fill="#05163D"/>
<path d="M736.72 101.66C738.29 101.66 739.02 102.39 739.02 103.85V113.7C739.02 115.27 738.24 116 736.72 116H705.2V169.74C705.2 171.19 704.47 171.92 703.01 171.92H692.04C690.59 171.92 689.86 171.19 689.86 169.74V116H658.34C656.77 116 656.04 115.22 656.04 113.7V103.85C656.04 102.4 656.82 101.66 658.34 101.66H736.72Z" fill="#05163D"/>
<path d="M816.16 101.66C823.88 101.66 829.37 103.4 832.73 106.87C836.09 110.34 837.77 115.49 837.77 122.32V128.03C837.77 133.79 836.6 138.33 834.24 141.69C831.89 145.05 828.08 147.18 822.76 148.13L839.94 169.4C840.28 169.74 840.39 170.24 840.22 170.91C840.11 171.58 839.55 171.92 838.6 171.92H825.67C824.77 171.92 824.22 171.81 823.88 171.64C823.54 171.41 823.21 171.08 822.87 170.64L806.97 149.76H774.51V169.75C774.51 171.2 773.78 171.94 772.32 171.94H761.46C759.89 171.94 759.16 171.21 759.16 169.75V104.7C759.16 102.68 760.17 101.68 762.18 101.68H816.14L816.16 101.66ZM774.62 137.54H813.08C816.5 137.54 818.9 136.81 820.3 135.36C821.7 133.91 822.43 131.66 822.43 128.64V124.44C822.43 121.42 821.7 119.18 820.3 117.72C818.9 116.27 816.49 115.53 813.08 115.53H775.91C775.01 115.53 774.62 115.92 774.62 116.76V137.53V137.54Z" fill="#05163D"/>
<path d="M872.64 101.66C874.09 101.66 874.83 102.39 874.83 103.85V143.93C874.83 146.61 875.06 148.86 875.5 150.59C875.95 152.38 876.67 153.78 877.69 154.79C878.7 155.85 880.04 156.58 881.78 156.97C883.52 157.42 885.65 157.65 888.27 157.65H916.09C918.72 157.65 920.85 157.42 922.58 156.97C924.32 156.52 925.66 155.8 926.67 154.79C927.68 153.73 928.41 152.33 928.8 150.59C929.19 148.8 929.42 146.61 929.42 143.93V103.85C929.42 102.4 930.15 101.66 931.61 101.66H942.58C944.03 101.66 944.76 102.39 944.76 103.85V145.44C944.76 150.25 944.25 154.34 943.25 157.76C942.24 161.12 940.62 163.86 938.38 165.99C936.14 168.12 933.23 169.63 929.64 170.58C926.06 171.53 921.75 171.98 916.65 171.98H887.71C882.62 171.98 878.31 171.53 874.78 170.58C871.25 169.63 868.34 168.12 866.1 165.99C863.86 163.86 862.24 161.12 861.17 157.76C860.11 154.4 859.6 150.26 859.6 145.44V103.85C859.6 102.4 860.38 101.66 861.9 101.66H872.65H872.64Z" fill="#05163D"/>
<path d="M987.9 101.66C989.35 101.66 990.64 101.77 991.71 101.94C992.77 102.17 993.73 102.5 994.51 103.11C995.3 103.67 996.02 104.45 996.69 105.41C997.31 106.36 997.98 107.65 998.65 109.27L1019.54 157.47C1019.82 158.09 1020.26 158.37 1020.94 158.37H1022.17C1022.84 158.37 1023.29 158.09 1023.57 157.47L1044.45 109.27C1045.13 107.65 1045.8 106.36 1046.41 105.41C1047.03 104.46 1047.75 103.67 1048.6 103.11C1049.38 102.55 1050.34 102.16 1051.34 101.94C1052.4 101.71 1053.64 101.66 1055.09 101.66H1065.84C1069.3 101.66 1071.66 102.44 1072.89 104.01C1074.12 105.58 1074.68 108.26 1074.68 112.07V169.73C1074.68 171.18 1073.9 171.91 1072.39 171.91H1062.14C1060.69 171.91 1059.95 171.18 1059.95 169.73V117.28C1059.95 116.61 1059.67 116.28 1059.17 116.28H1058.27C1057.6 116.28 1057.15 116.56 1056.98 117.06L1036.72 162.07C1035.93 163.86 1035.1 165.43 1034.25 166.66C1033.42 167.89 1032.51 168.9 1031.57 169.74C1030.61 170.53 1029.5 171.14 1028.27 171.48C1027.03 171.82 1025.58 171.99 1023.9 171.99H1019.09C1017.41 171.99 1015.96 171.82 1014.73 171.48C1013.49 171.14 1012.37 170.58 1011.42 169.74C1010.47 168.95 1009.52 167.89 1008.74 166.66C1007.9 165.43 1007.06 163.92 1006.28 162.07L986.01 117.06C985.78 116.5 985.39 116.28 984.72 116.28H983.82C983.26 116.28 983.04 116.62 983.04 117.28V169.73C983.04 171.18 982.31 171.91 980.85 171.91H970.6C969.03 171.91 968.31 171.18 968.31 169.73V112.07C968.31 108.26 968.93 105.58 970.1 104.01C971.33 102.44 973.68 101.66 977.21 101.66H987.91H987.9Z" fill="#05163D"/>
</svg>
