<svg width="1612" height="357" viewBox="0 0 1612 357" fill="none" xmlns="http://www.w3.org/2000/svg">
<path d="M178.433 27.26C193.553 27.26 207.143 35.66 213.903 49.18L325.423 272.22C331.613 284.6 330.963 299.02 323.693 310.8C316.413 322.58 303.803 329.61 289.963 329.61H66.9128C53.0728 329.61 40.4628 322.58 33.1828 310.8C25.9028 299.02 25.2528 284.6 31.4428 272.22L142.963 49.18C149.723 35.66 163.313 27.26 178.433 27.26ZM178.433 0C153.083 0 129.923 14.32 118.583 36.99L7.06279 260.03C-3.30721 280.77 -2.19721 305.41 9.99279 325.13C22.1828 344.86 43.7228 356.87 66.9128 356.87H289.953C313.143 356.87 334.683 344.86 346.873 325.13C359.063 305.4 360.173 280.77 349.803 260.03L238.283 36.99C226.953 14.32 203.783 0 178.433 0Z" fill="#5DEB5A"/>
<path d="M798.433 91.2C799.773 91.2 800.853 92.2799 800.853 93.6199V196.14C800.853 244.75 770.443 268.67 730.313 268.67C690.183 268.67 659.773 244.74 659.773 196.14V93.6199C659.773 92.2799 660.853 91.2 662.193 91.2H686.013C687.353 91.2 688.433 92.2799 688.433 93.6199V194.39C688.433 228.29 706.133 241.75 730.313 241.75C754.493 241.75 772.193 228.29 772.193 194.39V93.6199C772.193 92.2799 773.273 91.2 774.613 91.2H798.433Z" fill="#101820"/>
<path d="M1216.07 178.44C1215.82 229.79 1176.69 268.67 1125.59 268.67C1074.49 268.67 1035.11 229.79 1035.11 178.44C1035.11 127.09 1074.49 88.21 1125.59 88.21C1176.69 88.21 1215.82 127.09 1216.07 178.44ZM1063.52 178.44C1063.52 214.83 1090.19 241.75 1125.59 241.75C1160.99 241.75 1187.41 214.83 1187.41 178.44C1187.41 142.05 1160.74 115.13 1125.59 115.13C1090.44 115.13 1063.52 142.05 1063.52 178.44Z" fill="#101820"/>
<path d="M1470.11 265.68H1445.44C1443.74 265.68 1442.57 263.97 1443.18 262.39L1508.47 93.7599C1509.01 92.3599 1510.36 91.4399 1511.86 91.4399H1542.73C1544.23 91.4399 1545.57 92.3599 1546.12 93.7599L1611.41 262.39C1612.02 263.98 1610.85 265.68 1609.15 265.68H1584.48C1583.47 265.68 1582.57 265.06 1582.22 264.12L1529.57 125.28C1528.78 123.2 1525.83 123.2 1525.04 125.28L1472.38 264.12C1472.02 265.06 1471.12 265.68 1470.12 265.68H1470.11Z" fill="#101820"/>
<path d="M473.173 265.68H448.503C446.803 265.68 445.633 263.97 446.243 262.39L511.533 93.7599C512.073 92.3599 513.423 91.4399 514.923 91.4399H545.793C547.293 91.4399 548.633 92.3599 549.183 93.7599L614.473 262.39C615.083 263.98 613.913 265.68 612.213 265.68H587.543C586.533 265.68 585.633 265.06 585.283 264.12L532.633 125.28C531.843 123.2 528.893 123.2 528.103 125.28L475.443 264.12C475.083 265.06 474.183 265.68 473.183 265.68H473.173Z" fill="#101820"/>
<path d="M1400.76 261.77L1351.79 199.22C1379.42 193.99 1395.6 175.32 1395.6 146.7C1395.6 113.84 1374.19 91.4399 1336.36 91.4399H1268.05C1266.05 91.4399 1264.42 93.0699 1264.42 95.0699C1264.42 107.91 1274.83 118.32 1287.67 118.32H1333.37C1356.27 118.32 1367.22 130.02 1367.22 146.95C1367.22 163.88 1356.51 175.83 1333.37 175.83H1268.05C1266.05 175.83 1264.42 177.46 1264.42 179.46V263.27C1264.42 264.61 1265.5 265.69 1266.84 265.69H1290.13C1291.47 265.69 1292.55 264.61 1292.55 263.27V200.72H1319.43L1361.95 256.21C1366.53 262.19 1373.63 265.69 1381.16 265.69H1398.85C1400.87 265.69 1402 263.37 1400.76 261.78V261.77Z" fill="#101820"/>
<path d="M995.863 261.77L946.893 199.22C974.523 193.99 990.703 175.32 990.703 146.7C990.703 113.84 969.293 91.4399 931.463 91.4399H863.153C861.153 91.4399 859.523 93.0699 859.523 95.0699C859.523 107.91 869.933 118.32 882.773 118.32H928.473C951.373 118.32 962.323 130.02 962.323 146.95C962.323 163.88 951.613 175.83 928.473 175.83H863.153C861.153 175.83 859.523 177.46 859.523 179.46V263.27C859.523 264.61 860.603 265.69 861.943 265.69H885.233C886.573 265.69 887.653 264.61 887.653 263.27V200.72H914.533L957.053 256.21C961.633 262.19 968.733 265.69 976.263 265.69H993.953C995.973 265.69 997.103 263.37 995.863 261.78V261.77Z" fill="#101820"/>
</svg>
