<svg width="1254" height="227" viewBox="0 0 1254 227" fill="none" xmlns="http://www.w3.org/2000/svg">
<g clip-path="url(#clip0_13790_11014)">
<path d="M415.161 208.768V225.868H404.971C392.791 225.868 388.231 220.598 388.051 211.648C381.851 220.728 372.191 226.928 357.671 226.928C337.471 226.928 323.441 216.918 323.441 199.648C323.441 180.338 337.081 169.798 362.951 169.798H386.071V164.178C386.071 153.818 378.631 147.438 365.871 147.438C354.401 147.438 346.781 152.888 345.321 161.078H325.831C328.001 143.058 343.281 131.578 366.801 131.578C390.321 131.578 405.551 143.398 405.551 165.418V202.708C405.551 207.448 407.191 208.728 411.351 208.728H415.161V208.768ZM386.061 184.368H362.051C350.051 184.368 343.321 188.928 343.321 198.358C343.321 206.198 349.871 211.648 360.421 211.648C376.451 211.648 386.061 201.998 386.061 187.998V184.368Z" fill="#FF394A"/>
<path d="M457.933 225.858L422.633 132.678H443.763L470.333 204.738L496.723 132.678H517.453L481.973 225.858H457.923H457.933Z" fill="#FF394A"/>
<path d="M617.82 208.768V225.868H607.63C595.45 225.868 590.89 220.598 590.71 211.648C584.51 220.728 574.85 226.928 560.33 226.928C540.13 226.928 526.09 216.918 526.09 199.648C526.09 180.338 539.73 169.798 565.6 169.798H588.72V164.178C588.72 153.818 581.28 147.438 568.52 147.438C557.05 147.438 549.43 152.888 547.97 161.078H528.48C530.65 143.058 545.93 131.578 569.45 131.578C592.97 131.578 608.2 143.398 608.2 165.418V202.708C608.2 207.448 609.84 208.728 614 208.728H617.81V208.768H617.82ZM588.68 184.368H564.68C552.68 184.368 545.95 188.928 545.95 198.358C545.95 206.198 552.51 211.648 563.05 211.648C579.08 211.648 588.69 201.998 588.69 187.998V184.368H588.68Z" fill="#FF394A"/>
<path d="M707.811 208.589V225.859H632.121V208.589H660.241V116.999L632.121 126.299V108.939L656.171 99.7285H679.911V208.629H707.861L707.821 208.589H707.811Z" fill="#FF394A"/>
<path d="M812.64 208.768V225.868H802.45C790.27 225.868 785.71 220.598 785.53 211.648C779.33 220.728 769.68 226.928 755.15 226.928C734.95 226.928 720.91 216.918 720.91 199.648C720.91 180.338 734.55 169.798 760.42 169.798H783.54V164.178C783.54 153.818 776.1 147.438 763.34 147.438C751.87 147.438 744.25 152.888 742.79 161.078H723.3C725.47 143.058 740.75 131.578 764.27 131.578C787.79 131.578 803.02 143.398 803.02 165.418V202.708C803.02 207.448 804.66 208.728 808.82 208.728H812.63V208.768H812.64ZM783.55 184.368H759.55C747.55 184.368 740.82 188.928 740.82 198.358C740.82 206.198 747.37 211.648 757.91 211.648C773.94 211.648 783.55 201.998 783.55 187.998V184.368Z" fill="#FF394A"/>
<path d="M917.882 172.718V225.868H898.042V174.538C898.042 157.978 890.952 148.898 876.912 148.898C862.162 148.898 853.262 159.618 853.262 177.638V225.868H833.602V132.688H850.702L852.872 144.868C858.492 137.608 867.262 131.578 881.432 131.578C901.272 131.578 917.842 142.298 917.842 172.718H917.882Z" fill="#FF394A"/>
<path d="M942.013 179.448C942.013 150.708 960.393 131.568 988.423 131.568C1012.25 131.568 1027.17 144.858 1030.81 165.978H1010.26C1007.69 155.038 999.893 148.308 988.073 148.308C972.443 148.308 962.033 161.238 962.033 179.448C962.033 197.658 972.393 210.188 988.073 210.188C999.723 210.188 1007.73 203.278 1010.08 192.518H1030.81C1027.35 213.638 1011.5 226.928 987.853 226.928C959.813 226.928 941.973 208.548 941.973 179.448H942.013Z" fill="#FF394A"/>
<path d="M1139.61 172.718V225.868H1119.77V174.358C1119.77 158.328 1112.69 148.888 1098.12 148.888C1083.55 148.888 1074.11 159.828 1074.11 177.458V225.868H1054.45V98.498H1074.11V144.558C1080.49 136.538 1090.14 131.628 1102.68 131.628C1124.51 131.628 1139.61 144.558 1139.61 172.768V172.728V172.718Z" fill="#FF394A"/>
<path d="M1183.42 183.838V184.768C1183.95 200.578 1193.78 210.988 1209.06 210.988C1220.71 210.988 1229.61 204.968 1232.18 194.598H1251.84C1248.56 212.978 1233.11 226.968 1210.17 226.968C1181.07 226.968 1162.87 208.058 1162.87 179.488C1162.87 150.918 1181.07 131.608 1208.17 131.608C1235.27 131.608 1252.95 148.708 1253.48 176.028C1253.48 178.018 1253.3 181.118 1252.95 183.868H1183.42V183.828V183.838ZM1184.13 169.088H1233.06C1231.42 155.268 1221.95 147.428 1208.31 147.428C1196.13 147.428 1185.54 155.798 1184.08 169.088H1184.13Z" fill="#FF394A"/>
<path d="M161.362 225.858H247.382C254.972 225.858 259.722 217.638 255.922 211.068L212.912 136.578C209.112 130.008 199.632 130.008 195.832 136.578L152.822 211.068C149.022 217.638 153.772 225.858 161.362 225.858Z" fill="#FF394A"/>
<path d="M172.122 65.9274L136.772 4.68742C133.202 -1.50258 124.262 -1.50258 120.692 4.68742L1.80155 210.607C-2.10845 217.387 2.78155 225.847 10.6015 225.847H81.3915C88.9415 225.847 95.9115 221.817 99.6815 215.287L172.122 89.8174C176.392 82.4274 176.392 73.3174 172.122 65.9274Z" fill="#FF394A"/>
</g>
<defs>
<clipPath id="clip0_13790_11014">
<rect width="1253.06" height="226.92" fill="white" transform="translate(0.421875 0.0478516)"/>
</clipPath>
</defs>
</svg>
