<svg width="319" height="56" viewBox="0 0 319 56" fill="none" xmlns="http://www.w3.org/2000/svg">
<g clip-path="url(#clip0_1439_2030)">
<path d="M9.34249 8.57756L24.203 0L39.0634 8.57756L33.6 11.7463L24.203 6.33756L14.8059 11.7463L9.34249 8.57756ZM39.0634 19.3951L33.6 16.2263L24.203 21.6351L14.8059 16.2263L9.34249 19.3951V25.7327L18.7395 31.1415V41.959L24.203 45.1278L29.6664 41.959V31.1415L39.0634 25.7327V19.3951ZM39.0634 36.5502V30.2127L33.6 33.3815V39.719L39.0634 36.5502ZM42.9425 38.7902L33.5454 44.199V50.5366L48.4059 41.959V24.8039L42.9425 27.9727V38.7902ZM37.4791 13.9863L42.9425 17.1551V23.4927L48.4059 20.3239V13.9863L42.9425 10.8176L37.4791 13.9863ZM18.7395 46.4937V52.8312L24.203 56L29.6664 52.8312V46.4937L24.203 49.6624L18.7395 46.4937ZM9.34249 36.5502L14.8059 39.719V33.3815L9.34249 30.2127V36.5502ZM18.7395 13.9863L24.203 17.1551L29.6664 13.9863L24.203 10.8176L18.7395 13.9863ZM5.46341 17.1551L10.9268 13.9863L5.46341 10.8176L0 13.9863V20.3239L5.46341 23.4927V17.1551ZM5.46341 27.9727L0 24.8039V41.959L14.8605 50.5366V44.199L5.46341 38.7902V27.9727Z" fill="#F0B90B"/>
<path d="M91.478 35.1436V35.0545C91.478 30.8694 89.2519 28.7769 85.6456 27.3967C87.8717 26.1501 89.7417 24.1911 89.7417 20.6738V20.5848C89.7417 15.6873 85.8237 12.5262 79.457 12.5262H64.9873V43.6918H79.8132C86.8477 43.6918 91.478 40.8424 91.478 35.1436ZM82.9298 21.8314C82.9298 24.1466 81.0153 25.126 77.9878 25.126H71.6656V18.5367H78.433C81.327 18.5367 82.9298 19.6943 82.9298 21.7423V21.8314ZM84.6661 34.2976C84.6661 36.6128 82.8407 37.6813 79.8132 37.6813H71.6656V30.8249H79.5906C83.1078 30.8249 84.6661 32.116 84.6661 34.2086V34.2976Z" fill="#F0B90B"/>
<path d="M125.256 43.6918V12.5262H118.489V31.7153L103.886 12.5262H97.5635V43.6918H104.331V23.8794L119.424 43.6918H125.256Z" fill="#F0B90B"/>
<path d="M159.674 35.1436V35.0545C159.674 30.8694 157.448 28.7769 153.841 27.3967C156.067 26.1501 157.937 24.1911 157.937 20.6738V20.5848C157.937 15.6873 154.019 12.5262 147.653 12.5262H133.183V43.6918H148.009C155.043 43.6918 159.674 40.8424 159.674 35.1436ZM151.126 21.8314C151.126 24.1466 149.211 25.126 146.184 25.126H139.861V18.5367H146.629C149.523 18.5367 151.126 19.6943 151.126 21.7423V21.8314ZM152.862 34.2976C152.862 36.6128 151.036 37.6813 148.009 37.6813H139.861V30.8249H147.786C151.304 30.8249 152.862 32.116 152.862 34.2086V34.2976Z" fill="#F0B90B"/>
<path d="M200.996 38.1864L197.479 34.6246C194.808 37.1179 192.359 38.6762 188.53 38.6762C182.564 38.6762 178.246 33.6897 178.246 27.5456C178.246 21.4015 182.564 16.504 188.53 16.504C192.092 16.504 194.763 18.0623 197.257 20.3775L200.774 16.326C197.791 13.4765 194.318 11.473 188.575 11.473C179.136 11.473 172.502 18.7302 172.502 27.6346C172.502 36.6281 179.27 43.7072 188.352 43.7072C194.185 43.7072 197.746 41.5701 200.996 38.1864Z" fill="#F0B90B"/>
<path d="M227.544 30.0388V43.1729H233.021V12.0073H227.544V24.9633H212.674V12.0073H207.198V43.1729H212.674V30.0388H227.544Z" fill="#F0B90B"/>
<path d="M257.586 11.7847H252.511L238.798 43.1729H244.408L247.613 35.6486H262.35L265.511 43.1729H271.299L257.586 11.7847ZM260.347 30.7957H249.617L254.96 18.3295L260.347 30.7957Z" fill="#F0B90B"/>
<path d="M277.401 12.0073V43.1729H282.877V12.0073H277.401Z" fill="#F0B90B"/>
<path d="M313.436 33.5561L296.74 12.0073H291.665V43.1729H297.052V21.0008L314.238 43.1729H318.823V12.0073H313.436V33.5561Z" fill="#F0B90B"/>
</g>
<defs>
<clipPath id="clip0_1439_2030">
<rect width="319" height="56" fill="white"/>
</clipPath>
</defs>
</svg>
