<svg width="1080" height="271" viewBox="0 0 1080 271" fill="none" xmlns="http://www.w3.org/2000/svg">
<path d="M83 0L0 137.8L83 100.1V0Z" fill="#8891B1"/>
<path d="M83 100.1L0 137.8L83 186.9V100.1Z" fill="#63688E"/>
<path d="M166.1 137.8L83 0V100.1L166.1 137.8Z" fill="#63688E"/>
<path d="M83 186.9L166.1 137.8L83 100.1V186.9Z" fill="#464A75"/>
<path d="M0 153.6L83 270.6V202.6L0 153.6Z" fill="#8891B1"/>
<path d="M83 202.6V270.6L166.1 153.6L83 202.6Z" fill="#63688E"/>
<path d="M304.9 156.4C304.9 158.3 303.2 160 301.3 160H234.9C236.6 175.8 248.9 191.2 266.3 191.2C278.2 191.2 287 186.6 293.7 177C294.4 176 295.4 175.3 296.6 175.3C298.5 175.3 299.9 176.7 299.9 178.6C299.9 179.3 299.7 179.8 299.4 180.3C292.7 192 279.4 197.7 266.3 197.7C243.9 197.7 228 177.7 228 156.3C228 134.9 243.9 115 266.3 115C288.7 115 304.9 135 304.9 156.4ZM297.7 153.2C296.3 136.3 283.7 121.8 266.3 121.8C248.9 121.8 236.5 136.3 234.9 153.2H297.7Z" fill="#8891B1"/>
<path d="M385.6 116.1C387.5 116.1 388.9 117.8 388.9 119.5C388.9 121.4 387.5 122.9 385.6 122.9H367.8V193.1C367.8 194.8 366.3 196.4 364.4 196.4C362.5 196.4 361 194.7 361 193.1V122.9H343.9C342 122.9 340.6 121.4 340.6 119.5C340.6 117.8 342 116.1 343.9 116.1H361V90.7C361 88.8 362.5 87.4 364.4 87.4C366.3 87.4 367.8 88.8 367.8 90.7V116.1H385.6Z" fill="#8891B1"/>
<path d="M493.8 150.2V192.6C493.8 194.5 492.7 195.9 491 195.9C489.1 195.9 488.2 194.5 488.2 192.6V150.2C488.2 135.9 479.9 121.6 463.9 121.6C443.4 121.6 434.3 139.5 435.4 157.8C435.4 158.3 435.3 160.4 435.3 160.7V192.6C435.3 194.5 434.4 195.9 432.5 195.9C430.6 195.9 429.7 194.5 429.7 192.6V53.2999C429.7 51.5999 430.6 49.9999 432.5 49.9999C434.4 49.9999 435.3 51.6999 435.3 53.2999V132.1C442.1 121.9 451.2 115 463.1 115C482.6 115 493.8 132.1 493.8 150.2Z" fill="#8891B1"/>
<path d="M613.6 156.4C613.6 158.3 611.9 160 610 160H543.6C545.3 175.8 557.6 191.2 575 191.2C586.9 191.2 595.7 186.6 602.4 177C603.1 176 604.1 175.3 605.3 175.3C607.2 175.3 608.6 176.7 608.6 178.6C608.6 179.3 608.4 179.8 608.1 180.3C601.4 192 588.1 197.7 575 197.7C552.6 197.7 536.7 177.7 536.7 156.3C536.7 134.9 552.6 115 575 115C597.4 115 613.6 135 613.6 156.4ZM606.5 153.2C605.1 136.3 592.5 121.8 575.1 121.8C557.7 121.8 545.3 136.3 543.7 153.2H606.5Z" fill="#8891B1"/>
<path d="M695.3 119.5C695.3 121.6 694.1 122.8 692.1 123.1C672.6 126 663.7 141.9 663.7 160.5V192.3C663.7 194.2 662.2 195.6 660.3 195.6C658.4 195.6 656.9 194.2 656.9 192.3V119.7C656.9 117.8 658.4 116.4 660.3 116.4C662.2 116.4 663.7 117.8 663.7 119.7V134.5C669.3 125.2 680.2 116.4 691.6 116.4C693.3 116.4 695.3 117.6 695.3 119.5Z" fill="#8891B1"/>
<path d="M804.5 156.4C804.5 158.3 802.8 160 800.9 160H734.5C736.2 175.8 748.5 191.2 765.9 191.2C777.8 191.2 786.6 186.6 793.3 177C794 176 795 175.3 796.2 175.3C798.1 175.3 799.5 176.7 799.5 178.6C799.5 179.3 799.3 179.8 799 180.3C792.3 192 779 197.7 765.9 197.7C743.5 197.7 727.6 177.7 727.6 156.3C727.6 134.9 743.5 115 765.9 115C788.3 114.9 804.5 135 804.5 156.4ZM797.4 153.2C796 136.3 783.4 121.8 766 121.8C748.6 121.8 736.2 136.3 734.6 153.2H797.4Z" fill="#8891B1"/>
<path d="M912.4 120.2V143.3V193C912.4 194.9 910.7 196.3 909 196.3C907.1 196.3 905.6 194.9 905.6 193V179.3C900 190.2 890.3 198.1 877.9 198.1C858.1 198.1 847.1 181 847.1 162.9V120.3C847.1 118.6 848.6 117 850.5 117C852.4 117 853.9 118.7 853.9 120.3V162.9C853.9 177.2 862 191.5 878 191.5C900.4 191.5 905.7 170.6 905.7 147.5V120.4C905.7 118.7 907.2 117.1 909.1 117.1C910.7 116.9 912.4 118.6 912.4 120.2Z" fill="#8891B1"/>
<path d="M1080 150V192.6C1080 194.5 1078.3 195.9 1076.6 195.9C1074.7 195.9 1073.2 194.5 1073.2 192.6V150C1073.2 135.7 1065.1 121.7 1049.1 121.7C1029.1 121.7 1021.4 143.1 1021.4 159.8V192.6C1021.4 194.5 1019.7 195.9 1018 195.9C1016.1 195.9 1014.6 194.5 1014.6 192.6V150C1014.6 135.7 1006.7 121.7 990.8 121.7C970.6 121.7 962.2 137.6 962.9 158.8V160.5V192.6C962.9 194.5 961.4 195.9 959.5 195.9C957.6 195.9 956.1 194.5 956.1 192.6V119.8C956.1 117.9 957.6 116.5 959.5 116.5C961.4 116.5 962.9 117.9 962.9 119.8V131.9C968.5 121.7 979 115 990.9 115C1004.5 115 1015 123.6 1019.3 136.2C1024.8 123.8 1035.5 115 1049.3 115C1068.9 115 1080 131.9 1080 150Z" fill="#8891B1"/>
</svg>
