<svg width="390" height="113" viewBox="0 0 390 113" fill="none" xmlns="http://www.w3.org/2000/svg">
<path d="M102.136 110.872H85.9443V32.0753H102.136V110.872Z" fill="#121212"/>
<path d="M160.646 30.5283C169.584 30.5283 176.887 33.6633 182.545 39.9313C188.195 46.2003 191.028 54.1703 191.028 63.8333V110.864H174.835V66.3003C174.835 60.2353 172.882 55.2203 168.974 51.2643C165.066 47.3073 160.239 45.3293 154.483 45.3293C148.003 45.3293 142.711 47.3073 138.6 51.2643C134.489 55.2203 132.429 60.2353 132.429 66.3003V110.864H116.237V32.0753H132.429V52.4283C134.586 45.6463 138.16 40.2983 143.151 36.3903C148.133 32.4823 153.97 30.5283 160.654 30.5283H160.646Z" fill="#121212"/>
<path d="M241.51 30.5283C254.153 30.5283 264.435 35.0553 272.348 44.0993C280.261 53.1523 283.502 64.0943 282.061 76.9483H216.835C217.967 83.3233 220.897 88.4923 225.627 92.4493C230.357 96.4053 236.056 98.3843 242.74 98.3843C247.877 98.3843 252.476 97.1223 256.539 94.6063C260.601 92.0913 263.76 88.6713 266.023 84.3493L279.594 90.3653C276.101 97.0483 271.111 102.389 264.639 106.402C258.167 110.416 250.71 112.419 242.276 112.419C230.455 112.419 220.531 108.511 212.512 100.704C204.493 92.8973 200.48 83.1763 200.48 71.5593C200.48 59.9423 204.412 50.2053 212.276 42.3333C220.14 34.4693 229.877 30.5373 241.502 30.5373L241.51 30.5283ZM241.51 44.5633C235.543 44.5633 230.382 46.3873 226.01 50.0423C221.638 53.6903 218.732 58.4443 217.299 64.3053H265.722C264.386 58.4443 261.529 53.6903 257.165 50.0423C252.794 46.3953 247.575 44.5633 241.51 44.5633Z" fill="#121212"/>
<path d="M326.828 30.5283C336.288 30.5283 343.997 32.9953 349.956 37.9293C355.916 42.8623 358.903 49.9613 358.903 59.2093V110.872H342.711V89.9013C337.875 104.913 328.163 112.419 313.566 112.419C306.776 112.419 301.127 110.392 296.6 106.329C292.074 102.267 289.819 96.9513 289.819 90.3733C289.819 82.6633 292.538 76.8753 297.992 73.0243C303.439 69.1743 310.383 66.7803 318.809 65.8523L334.073 64.3053C339.829 63.7933 342.711 61.2203 342.711 56.5963C342.711 52.7943 341.245 49.7573 338.315 47.5023C335.384 45.2393 331.558 44.1083 326.828 44.1083C322.098 44.1083 317.905 45.3453 314.567 47.8123C311.23 50.2783 309.097 53.8773 308.169 58.6073L292.131 54.7483C293.572 47.3483 297.422 41.4623 303.699 37.0903C309.968 32.7263 317.677 30.5373 326.828 30.5373V30.5283ZM318.809 99.3043C325.493 99.3043 331.142 97.0653 335.767 92.5953C340.391 88.1263 342.703 82.9083 342.703 76.9403V72.6253C341.473 74.6853 338.486 75.9633 333.756 76.4763L318.801 78.3243C314.893 78.8453 311.783 79.9933 309.471 81.7923C307.159 83.5913 306.003 86.0343 306.003 89.1193C306.003 92.2053 307.159 94.6713 309.471 96.5193C311.783 98.3673 314.893 99.2953 318.801 99.2953L318.809 99.3043Z" fill="#121212"/>
<path d="M74.7915 110.872H0V32.0753H17.1123V95.6073H74.7915V110.872Z" fill="#121212"/>
<path d="M374.168 30.5283C382.598 30.5283 389.432 23.6943 389.432 15.2644C389.432 6.8341 382.598 0 374.168 0C365.737 0 358.903 6.8341 358.903 15.2644C358.903 23.6943 365.737 30.5283 374.168 30.5283Z" fill="#121212"/>
</svg>
