<svg width="604" height="160" viewBox="0 0 604 160" fill="none" xmlns="http://www.w3.org/2000/svg">
<g clip-path="url(#clip0_9_231)">
<path fill-rule="evenodd" clip-rule="evenodd" d="M88.13 27.38L92.23 0.95C88.17 0.32 84.02 0 79.88 0H79.82V53.93H79.88C82.15 53.93 84.4 54.22 86.57 54.8L93.54 28.52C91.76 28.05 89.95 27.67 88.12 27.39L88.13 27.38Z" fill="black"/>
<path fill-rule="evenodd" clip-rule="evenodd" d="M66.88 57.41L53.46 34.29C51.88 35.21 50.34 36.21 48.86 37.28L32.83 15.32C36.2 12.86 39.79 10.65 43.5 8.75001L55.7 32.56C58.18 31.29 60.75 30.22 63.39 29.36L55.08 3.93001C59.04 2.64001 63.15 1.65001 67.27 0.990005L71.54 27.84C69.73 28.13 67.94 28.52 66.17 28.99L73.11 54.81C70.93 55.4 68.83 56.27 66.87 57.41H66.88Z" fill="black"/>
<path fill-rule="evenodd" clip-rule="evenodd" d="M32.88 56.02L8.64999 43.69C6.74999 47.41 5.13999 51.32 3.85999 55.29L29.73 63.65C30.58 61.04 31.64 58.47 32.88 56.02Z" fill="black"/>
<path fill-rule="evenodd" clip-rule="evenodd" d="M125.47 53.44L102.36 66.87C103.5 68.83 104.37 70.93 104.96 73.11L130.77 66.15C131.25 67.92 131.64 69.71 131.92 71.52L158.77 67.24C158.11 63.11 157.12 59.01 155.83 55.04L130.4 63.35C129.54 60.71 128.47 58.14 127.2 55.67L151 43.46C149.1 39.76 146.89 36.17 144.43 32.8L122.48 48.84C123.56 50.32 124.55 51.86 125.48 53.44H125.47Z" fill="black"/>
<path fill-rule="evenodd" clip-rule="evenodd" d="M116.04 8.64001C112.31 6.75001 108.41 5.14001 104.44 3.85001L96.09 29.72C98.7 30.56 101.27 31.62 103.72 32.87L116.04 8.63001V8.64001Z" fill="black"/>
<path fill-rule="evenodd" clip-rule="evenodd" d="M106.39 33.81L92.82 57.37C94.79 58.5 96.6 59.89 98.21 61.5L136.28 23.3C133.33 20.36 130.12 17.63 126.75 15.18L111.05 36.83C109.55 35.75 108 34.74 106.4 33.81H106.39Z" fill="black"/>
<path fill-rule="evenodd" clip-rule="evenodd" d="M57.38 66.94L33.83 53.35C34.75 51.75 35.77 50.2 36.85 48.7L15.21 32.99C17.66 29.62 20.39 26.41 23.34 23.46L61.52 61.54C59.91 63.15 58.52 64.97 57.39 66.93L57.38 66.94Z" fill="black"/>
<path fill-rule="evenodd" clip-rule="evenodd" d="M28.52 66.2L54.79 73.19C54.21 75.36 53.92 77.61 53.92 79.89H0C0 75.74 0.32 71.57 0.96 67.5L27.39 71.62C27.68 69.79 28.05 67.99 28.53 66.2H28.52Z" fill="black"/>
<path fill-rule="evenodd" clip-rule="evenodd" d="M126.89 103.75L151.12 116.08C153.01 112.36 154.63 108.45 155.91 104.48L130.04 96.12C129.19 98.73 128.13 101.3 126.89 103.75Z" fill="black"/>
<path fill-rule="evenodd" clip-rule="evenodd" d="M92.89 102.36L106.31 125.48C107.89 124.56 109.43 123.56 110.91 122.49L126.94 144.45C123.57 146.91 119.98 149.12 116.27 151.02L104.07 127.21C101.59 128.48 99.03 129.55 96.38 130.41L104.68 155.84C100.72 157.13 96.61 158.12 92.49 158.78L88.22 131.93C90.03 131.64 91.82 131.25 93.59 130.78L86.65 104.96C88.83 104.37 90.93 103.5 92.89 102.36Z" fill="black"/>
<path fill-rule="evenodd" clip-rule="evenodd" d="M34.3 106.33L57.41 92.9C56.27 90.94 55.4 88.84 54.81 86.66L29 93.62C28.52 91.85 28.13 90.06 27.85 88.25L1 92.53C1.66 96.66 2.65 100.76 3.94 104.73L29.37 96.42C30.23 99.06 31.3 101.63 32.57 104.1L8.77 116.31C10.67 120.02 12.88 123.6 15.34 126.97L37.29 110.93C36.21 109.45 35.22 107.91 34.29 106.33H34.3Z" fill="black"/>
<path fill-rule="evenodd" clip-rule="evenodd" d="M43.73 151.14C47.46 153.03 51.36 154.64 55.33 155.93L63.68 130.06C61.07 129.22 58.5 128.16 56.05 126.91L43.73 151.14Z" fill="black"/>
<path fill-rule="evenodd" clip-rule="evenodd" d="M53.38 125.96L66.95 102.41C64.98 101.28 63.17 99.89 61.56 98.28L23.49 136.48C26.44 139.42 29.65 142.15 33.02 144.6L48.72 122.95C50.22 124.03 51.77 125.04 53.37 125.97L53.38 125.96Z" fill="black"/>
<path fill-rule="evenodd" clip-rule="evenodd" d="M102.39 92.83L125.94 106.42C125.02 108.02 124 109.57 122.92 111.07L144.56 126.78C142.11 130.15 139.38 133.36 136.43 136.31L98.25 98.23C99.86 96.62 101.25 94.8 102.38 92.84L102.39 92.83Z" fill="black"/>
<path fill-rule="evenodd" clip-rule="evenodd" d="M73.2 104.98L66.23 131.26C68.01 131.73 69.82 132.11 71.65 132.39L67.54 158.82C71.6 159.45 75.75 159.77 79.89 159.77H79.95V105.84H79.89C77.62 105.84 75.37 105.55 73.2 104.97V104.98Z" fill="black"/>
<path fill-rule="evenodd" clip-rule="evenodd" d="M104.98 86.58C105.56 84.41 105.85 82.16 105.85 79.88H159.78C159.78 84.03 159.46 88.2 158.82 92.27L132.39 88.15C132.1 89.98 131.73 91.78 131.25 93.57L104.98 86.58Z" fill="black"/>
<path fill-rule="evenodd" clip-rule="evenodd" d="M201.76 32H222.94L245.21 82.4H233.27L215.82 42.92H212.68V82.4H201.76V32Z" fill="black"/>
<path d="M424.47 32H413.55V82.4H424.47V32Z" fill="black"/>
<path fill-rule="evenodd" clip-rule="evenodd" d="M413.55 82.4H401.61L384.17 42.92H376.99V82.4H366.07V32H391.29L413.55 82.4Z" fill="black"/>
<path fill-rule="evenodd" clip-rule="evenodd" d="M267.47 32L245.21 82.4H257.14L274.59 42.92H277.73V82.4H288.65V32H267.47Z" fill="black"/>
<path d="M337.49 32H317.51L295.24 82.4H307.18L314.44 65.98H340.56L347.81 82.4H359.75L337.48 32H337.49ZM319.26 55.06L324.62 42.93H330.37L335.73 55.06H319.26Z" fill="black"/>
<path fill-rule="evenodd" clip-rule="evenodd" d="M430.54 42.92V32H492.43V42.92H466.94V82.4H456.02V42.92H430.54Z" fill="black"/>
<path fill-rule="evenodd" clip-rule="evenodd" d="M509.41 32H498.49V82.4H546.02V71.48H509.41V32Z" fill="black"/>
<path fill-rule="evenodd" clip-rule="evenodd" d="M603.66 32V42.92H563.01V51.01H598.25V61.93H563.01V71.48H603.66V82.4H552.09V32H603.66Z" fill="black"/>
<path d="M200.96 127.03V94.8H208.6L219.79 115.66V94.8H226.93V127.03H219.29L208.1 106.17V127.03H200.96Z" fill="black"/>
<path d="M233.19 127.03V94.8H252.9V100.79H240.65V108.11H252.9V113.96H240.65V121.05H252.9V127.04H233.19V127.03Z" fill="black"/>
<path d="M264.41 127.03V101.43H255.57V94.8H280.71V101.43H271.82V127.03H264.41Z" fill="black"/>
<path d="M293.99 127.03L282.62 94.8H290.45L297.17 116.21L303.57 94.8H309.37L315.77 116.21L322.49 94.8H330.32L318.95 127.03H312.87L306.47 106.77L300.07 127.03H293.99Z" fill="black"/>
<path d="M358.58 123C355.45 126.3 351.27 127.95 346.05 127.95C340.83 127.95 336.66 126.3 333.53 123C330.4 119.7 328.83 115.67 328.83 110.91C328.83 106.15 330.4 102.12 333.53 98.82C336.66 95.52 340.84 93.87 346.05 93.87C351.26 93.87 355.44 95.52 358.58 98.82C361.71 102.12 363.28 106.15 363.28 110.91C363.28 115.67 361.71 119.7 358.58 123ZM346.05 121.27C349 121.27 351.31 120.28 352.98 118.3C354.65 116.32 355.49 113.86 355.49 110.91C355.49 107.96 354.65 105.5 352.98 103.52C351.31 101.54 349 100.55 346.05 100.55C343.1 100.55 340.75 101.54 339.07 103.52C337.4 105.5 336.58 107.96 336.61 110.91C336.58 113.86 337.4 116.32 339.07 118.3C340.74 120.28 343.07 121.27 346.05 121.27Z" fill="black"/>
<path d="M392.88 106.44C392.88 108.77 392.34 110.85 391.27 112.68C390.19 114.51 388.72 115.88 386.85 116.8L392.51 127.02H384.04L378.97 118.09H375.06V127.02H367.6V94.79H381.32C384.67 94.79 387.43 95.89 389.61 98.08C391.79 100.28 392.88 103.06 392.88 106.44ZM375.06 100.87V112.01H380.17C381.67 112.01 382.91 111.49 383.88 110.44C384.85 109.4 385.33 108.06 385.33 106.43C385.33 104.8 384.85 103.47 383.88 102.42C382.91 101.38 381.68 100.85 380.17 100.85H375.06V100.87Z" fill="black"/>
<path d="M424.47 94.79L411.81 110.77L424.47 127.03H415.58L404.99 112.8V127.03H397.53V94.8H404.99V109.12L415.63 94.8H424.47V94.79Z" fill="black"/>
</g>
<defs>
<clipPath id="clip0_9_231">
<rect width="603.66" height="159.77" fill="white"/>
</clipPath>
</defs>
</svg>
