<svg width="554" height="105" viewBox="0 0 554 105" fill="none" xmlns="http://www.w3.org/2000/svg"><g clip-path="url(#clip0_976_7648)"><path d="M52.0207 0C36.9983 0 0 37.3381 0 52.4997C0 67.6613 36.9983 105 52.0207 105C67.0432 105 104.042 67.6606 104.042 52.4997C104.042 37.3388 67.0438 0 52.0207 0ZM43.9142 82.5208C37.5794 80.7787 20.5477 50.7116 22.2742 44.3184C24.0007 37.9249 53.7929 20.7368 60.1277 22.4792C66.4627 24.2213 83.4944 54.2879 81.7679 60.6813C80.0414 67.0748 50.249 84.2632 43.9142 82.5208Z" fill="#6E54FF"/><path d="M176.759 64.1357V64.1165L147.201 9.09646C146.619 8.01346 145.011 8.27284 144.793 9.4849L130.072 91.1989C129.928 91.9997 130.538 92.7369 131.344 92.7369H142.733C143.358 92.7369 143.894 92.2857 144.005 91.6652L152.578 43.9865L175.62 88.3191C176.104 89.2505 177.425 89.2505 177.909 88.3191L200.951 43.9865L209.524 91.6652C209.635 92.2857 210.171 92.7369 210.796 92.7369H222.185C222.991 92.7369 223.601 91.9997 223.457 91.1989L208.736 9.4849C208.518 8.27284 206.91 8.01346 206.328 9.09646L176.759 64.1357Z" fill="black"/><path d="M271.346 10.636C247.899 10.636 229.532 29.0239 229.532 52.5025C229.532 75.981 247.899 94.3792 271.346 94.3792C294.732 94.3792 313.053 75.9862 313.053 52.5025C313.053 29.0188 294.732 10.636 271.346 10.636ZM271.346 80.3606C256.056 80.3606 244.077 68.1225 244.077 52.5025C244.077 36.8825 256.056 24.6546 271.346 24.6546C286.575 24.6546 298.509 36.8876 298.509 52.5025C298.509 68.1173 286.575 80.3606 271.346 80.3606Z" fill="black"/><path d="M377.498 62.1061L328.47 8.84827C327.67 7.97973 326.23 8.55071 326.23 9.73623V91.4326C326.23 92.1531 326.809 92.7372 327.523 92.7372H339.376C340.09 92.7372 340.668 92.1531 340.668 91.4326V42.8075L389.589 96.1658C390.387 97.0369 391.83 96.4666 391.83 95.2798V13.5832C391.83 12.8627 391.251 12.2787 390.537 12.2787H378.791C378.077 12.2787 377.498 12.8627 377.498 13.5832V62.1061Z" fill="black"/><path d="M404.399 92.7367H417.126C417.63 92.7367 418.088 92.4409 418.3 91.979L427.833 71.1409H458.322L467.641 91.969C467.85 92.4363 468.311 92.7367 468.819 92.7367H482.628C483.581 92.7367 484.207 91.7307 483.792 90.8645L444.677 9.17319C444.207 8.19056 442.82 8.19056 442.35 9.17319L403.235 90.8645C402.82 91.7308 403.446 92.7367 404.399 92.7367ZM433.81 58.2121L443.285 37.4605L452.583 58.2121H433.81Z" fill="black"/><path d="M514.686 12.2783H495.127C494.413 12.2783 493.834 12.8623 493.834 13.5828V91.4321C493.834 92.1526 494.413 92.7367 495.127 92.7367H514.686C538.933 92.7367 554 77.3214 554 52.5024C554 27.6834 538.933 12.2783 514.686 12.2783ZM514.686 78.9331H508.379V25.9745H514.686C530.426 25.9745 539.455 35.6442 539.455 52.5024C539.455 69.2991 530.426 78.9331 514.686 78.9331Z" fill="black"/></g><defs><clipPath id="clip0_976_7648"><rect width="554" height="105" fill="white"/></clipPath></defs></svg>
