<?xml version="1.0" encoding="UTF-8"?>
<svg id="Layer_2" data-name="Layer 2" xmlns="http://www.w3.org/2000/svg" viewBox="0 0 3338.67 500">
  <defs>
    <style>
      .cls-1 {
        fill: #06353d;
        stroke-width: 0px;
      }
    </style>
  </defs>
  <g id="Layer_1-2" data-name="Layer 1">
    <g>
      <g>
        <path class="cls-1" d="M456.68,377.05c.07-11.18,42.76-10.7,42.47-21.18-.17-6.23-11.51-7.53-13.89-15.71-.4-1.51-.53-3.25-.27-5.28.17-1.21.48-2.51.98-3.94,8.75-25.46,13.51-52.76,13.51-81.19C499.48,111.81,387.67,0,249.74,0S0,111.81,0,249.74c0,28.25,4.71,55.4,13.36,80.73.05.24.13.48.22.73.25.66.45,1.28.64,1.89,3.08,11.07-14.17,15.48-14.17,22.17,0,10.58,37.15,9.17,37.15,21.48,0,10.72-36.74,14.05-36.74,24.88,0,14.95,81.36,9.75,82.38,22.61.79,9.93-27.97,10.53-28.15,21.14-.28,16.94,111.03,11.39,111.03,22.66,0,8.53-50.63,5.44-50.63,15.52s66.65,16.45,140.1,16.45,124.12-8.16,124.12-17.01-47.29-7.01-46.31-14.97c1.7-13.9,106.64-6.79,106.64-22.88,0-8.47-28.87-10.46-27.93-19.6,1.32-12.91,87.73-11,87.73-24.41,0-10.55-42.83-13.13-42.76-24.08ZM344.79,440.19c0,7.38-33.48,10.74-97.73,10.74-52.54,0-104.73-3.3-104.73-11.88s62.25-9.35,105.04-9.28c56.99.1,97.42,2.74,97.42,10.41ZM249.74,65.23c78.78,0,146.01,49.37,172.47,118.86h0c3.06,9.01-8.04,8.46-15.86,8.46h-21.27c-15.19,0-34.31,1.82-34.31,5.98,0,5.22,46.43,4.91,51.55,4.91,14.98,0,26.72,1.13,28.42,10.32,2.3,11.64,3.52,23.67,3.52,35.99,0,24.75-4.89,48.35-13.73,69.91-2.87,6.34-6.64,9.62-11.21,12.38-21.95,12.21-61.77,10.02-61.76,17.38,0,10.69,67.04,6.12,67.14,15.41.15,14.19-119.62,5.77-119.61,18.55.01,12.68,96.35,6.77,96.35,20.06,0,6.68-30.94,9.14-64.68,9.99-52.4.69-145.05.29-179.96-.91,0,0,.02.02.04.04-23.62-.85-43.73-4.07-51.62-7.47-2.17-.94-2.27-3.58-.19-4.65,23.87-12.28,169.56-2.5,169.56-16.77s-143.95-4.38-143.84-16.77c.08-8.8,62.9-8.03,112.72-8.03,64.53,0,84.34-3.23,84.31-7.88-.05-9.36-79.36-3.87-79.65-14.36-.28-10.18,125.52-2.75,125.52-12.72,0-6.34-54.65-6.93-109.29-6.73-54.65.21-109.29.3-109.29,7.08,0,7.67,64.68,4.69,64.68,12.37,0,6.06-35.54,7.32-72.66,7.32-24.49,0-43.49-1.86-52.8-13.41-.77-.95-1.54-2.34-2.16-3.59-10.81-23.5-16.9-49.63-16.9-77.2,0-101.9,82.61-184.51,184.51-184.51Z"/>
        <path class="cls-1" d="M245.97,302.89c79.47,0,156.85,1.15,156.87-7.73.02-10.75-110.97-9.49-168.63-9.49-45.73,0-127.71-1.43-127.71,8.78s91.79,8.44,139.47,8.44Z"/>
        <path class="cls-1" d="M297.31,272.38c52.25,0,78.41-.61,78.41-6.91,0-9.11-71.13-4.06-71.13-13.08,0-7.93,44.94-3.48,44.94-12,0-6.7-50.33-6.08-77.77-6.08-30.43,0-60.38,1.15-60.38,6.85,0,7.4,76.7,3.24,76.7,10.82,0,10.84-121.69,3.01-121.69,13.48,0,9.91,79.1,6.91,130.92,6.91Z"/>
        <path class="cls-1" d="M348.57,223.95c11.19,0,44.02-.7,44.02-5.19s-24.32-5.94-49.6-5.91c-17.37.02-52.78.3-52.78,5.38s26.88,5.73,58.36,5.72Z"/>
        <path class="cls-1" d="M367.5,240.53c0,4.25,18.77,6,33.18,6,8.32,0,24.19-1.73,24.19-5.1,0-4.08-16.29-5.33-26.2-5.46-12.84-.17-31.16.9-31.16,4.56Z"/>
      </g>
      <g>
        <path class="cls-1" d="M1009.35,83.67v331.68h-48.8V139.58l-98.56,275.77h-51.65l-97.13-273.4v273.4h-48.81V83.67h73.45l98.56,279.56,99.51-279.56h73.44Z"/>
        <path class="cls-1" d="M1222.79,121.69c33.95,0,65.88,13.22,89.89,37.23,24.01,24.01,37.23,55.93,37.23,89.89s-13.22,65.88-37.23,89.89c-24.01,24.01-55.93,37.23-89.89,37.23s-65.88-13.22-89.89-37.23c-24.01-24.01-37.23-55.93-37.23-89.89s13.22-65.88,37.23-89.89c24.01-24.01,55.93-37.23,89.89-37.23M1222.79,77.51c-94.6,0-171.29,76.69-171.29,171.29s76.69,171.29,171.29,171.29,171.29-76.69,171.29-171.29-76.69-171.29-171.29-171.29h0Z"/>
        <path class="cls-1" d="M1589.46,121.69c33.95,0,65.88,13.22,89.89,37.23,24.01,24.01,37.23,55.93,37.23,89.89s-13.22,65.88-37.23,89.89c-24.01,24.01-55.93,37.23-89.89,37.23s-65.88-13.22-89.89-37.23c-24.01-24.01-37.23-55.93-37.23-89.89s13.22-65.88,37.23-89.89c24.01-24.01,55.93-37.23,89.89-37.23M1589.46,77.51c-94.6,0-171.29,76.69-171.29,171.29s76.69,171.29,171.29,171.29,171.29-76.69,171.29-171.29-76.69-171.29-171.29-171.29h0Z"/>
        <g>
          <path class="cls-1" d="M2069.7,83.92v330.92h-60.98l-157.9-268.52v268.52h-49.17V83.92h65.24l153.64,260.48V83.92h49.17Z"/>
          <path class="cls-1" d="M2377.76,414.84h-50.59l-16.54-76.12c-8.98-41.6-30.73-58.62-72.8-58.62h-59.57v134.73h-50.58V83.92h135.68c65.71,0,108.26,36.87,108.26,94.07,0,42.07-23.16,73.28-62.4,86.51,26.94,10.4,42.54,30.26,49.63,62.87l18.91,87.46ZM2261.94,236.62c35.93,0,59.09-21.75,59.09-53.9s-23.16-54.37-58.62-54.37h-84.15v108.26h83.68Z"/>
          <path class="cls-1" d="M2420.23,83.92h50.58v330.92h-50.58V83.92Z"/>
          <path class="cls-1" d="M2801.93,83.92l-123.86,330.92h-55.79l-128.12-330.92h54.84l101.64,274.67,98.33-274.67h52.95Z"/>
          <path class="cls-1" d="M3050.89,370.4v44.44h-224.56V83.92h222.67v44.44h-172.08v95.49h155.06v44.44h-155.06v102.11h173.97Z"/>
          <path class="cls-1" d="M3338.67,414.84h-50.59l-16.54-76.12c-8.98-41.6-30.73-58.62-72.8-58.62h-59.57v134.73h-50.59V83.92h135.68c65.71,0,108.26,36.87,108.26,94.07,0,42.07-23.16,73.28-62.4,86.51,26.95,10.4,42.55,30.26,49.64,62.87l18.91,87.46ZM3222.85,236.62c35.93,0,59.09-21.75,59.09-53.9s-23.16-54.37-58.62-54.37h-84.15v108.26h83.68Z"/>
        </g>
      </g>
    </g>
  </g>
</svg>