<svg width="782" height="147" viewBox="0 0 782 147" fill="none" xmlns="http://www.w3.org/2000/svg">
<g clip-path="url(#clip0_1441_2205)">
<path d="M125.26 21.97C119.12 15.71 111.86 10.56 103.82 6.82C103.49 6.65 103.16 6.5 102.82 6.35C101.24 5.64 99.64 4.97 98.01 4.38C93.43 2.72 88.64 1.5 83.69 0.78C80.23 0.28 76.69 0 73.09 0C32.79 0 0 32.79 0 73.09C0 104.49 19.9 131.32 47.76 141.65C51.04 142.86 54.42 143.85 57.9 144.58C62.81 145.62 67.89 146.18 73.1 146.18C100.86 146.18 125.06 130.62 137.43 107.76C143.02 97.44 146.2 85.62 146.2 73.08C146.2 53.19 138.21 35.14 125.28 21.95L125.26 21.97ZM21.8 112.2C13.16 100.81 8.6 87.22 8.6 72.9C8.6 48.45 22.16 27.1 42.15 15.99C42.68 15.7 43.2 16.4 42.76 16.81C40.93 18.53 39.18 20.37 37.51 22.33C25.92 35.88 19.25 54.31 19.19 72.91C19.19 97.05 35.34 123.11 61.43 123.11C84.71 123.11 103.66 100.59 103.66 72.91C103.66 59.9 99.3 47.41 91.85 38.15C91.59 37.82 91.9 37.36 92.3 37.48C104.89 41.2 114.3 55.68 114.3 72.92C114.3 88.14 108.78 103.29 99.15 114.49C89.17 126.1 75.77 132.5 61.43 132.5C46.33 132.5 31.87 125.09 21.8 112.22V112.2ZM125.54 33.63C134.17 44.99 138.72 58.57 138.71 72.88C138.71 97.33 125.15 118.68 105.16 129.8C104.63 130.09 104.11 129.39 104.55 128.98C106.38 127.26 108.13 125.42 109.8 123.46C121.39 109.91 128.06 91.48 128.12 72.88C128.12 48.74 111.97 22.68 85.88 22.68C62.6 22.68 43.65 45.2 43.65 72.88C43.65 85.89 48.01 98.38 55.46 107.65C55.72 107.98 55.41 108.44 55.01 108.32C42.42 104.6 33.01 90.13 33.01 72.9C33.01 57.68 38.53 42.53 48.16 31.34C58.14 19.73 71.54 13.33 85.89 13.33C100.98 13.33 115.43 20.73 125.54 33.63ZM96.01 72.9C96.01 90.14 87.63 105.02 75.63 111.7C74.14 112.53 72.31 112.42 70.93 111.42L68.36 109.55C57.83 101.87 51.29 87.82 51.29 72.88C51.29 55.64 59.67 40.76 71.67 34.08C73.16 33.25 74.99 33.36 76.37 34.36L78.94 36.23C89.47 43.91 96.01 57.96 96.01 72.89V72.9Z" fill="#0500E2"/>
<path d="M206.83 50.96C203.57 48.87 199.75 47.83 195.39 47.83C191.03 47.83 187.2 48.87 183.91 50.96C180.62 53.05 178.08 56.03 176.28 59.92C174.48 63.81 173.58 68.44 173.58 73.81C173.58 79.18 174.48 83.74 176.28 87.63C178.08 91.52 180.62 94.51 183.91 96.62C187.2 98.73 191.02 99.79 195.39 99.79C199.76 99.79 203.57 98.74 206.83 96.62C210.09 94.51 212.63 91.51 214.46 87.63C216.28 83.74 217.19 79.14 217.19 73.81C217.19 68.48 216.28 63.75 214.46 59.89C212.64 56.03 210.09 53.05 206.83 50.97V50.96ZM204.92 83.16C203.99 85.75 202.69 87.73 201.03 89.1C199.38 90.47 197.49 91.15 195.38 91.15C193.27 91.15 191.37 90.47 189.7 89.1C188.02 87.73 186.71 85.75 185.78 83.16C184.84 80.57 184.38 77.45 184.38 73.81C184.38 70.17 184.85 67.05 185.78 64.46C186.71 61.87 188.02 59.89 189.7 58.52C191.38 57.15 193.27 56.47 195.38 56.47C197.49 56.47 199.37 57.15 201.03 58.52C202.69 59.89 203.98 61.85 204.92 64.42C205.86 66.99 206.32 70.12 206.32 73.81C206.32 77.5 205.85 80.57 204.92 83.16Z" fill="#0500E2"/>
<path d="M235.85 50.4199L223.52 95.97C223.12 97.46 224.24 98.9199 225.77 98.9199H231.28C232.34 98.9199 233.27 98.2 233.54 97.18L235.43 90.01C235.7 88.98 236.63 88.2699 237.69 88.2699H250.26C251.33 88.2699 252.26 88.9899 252.52 90.0199L254.37 97.1699C254.64 98.1999 255.57 98.9199 256.63 98.9199H262.41C263.95 98.9199 265.07 97.46 264.66 95.97L252.26 50.4199C251.98 49.3999 251.06 48.7 250.01 48.7H238.11C237.06 48.7 236.13 49.41 235.86 50.43L235.85 50.4199ZM241.18 79.6299C239.65 79.6299 238.53 78.1799 238.92 76.6999L240.99 68.8399L241.74 65.7099C242.31 63.3199 245.71 63.3199 246.28 65.7099L247.03 68.8399L249.06 76.7099C249.44 78.1899 248.33 79.6299 246.8 79.6299H241.17H241.18Z" fill="#0500E2"/>
<path d="M321.01 51.0299V54.9899C321.01 56.2799 322.06 57.3299 323.35 57.3299H327.1C328.39 57.3299 329.44 58.3799 329.44 59.6699V87.9499C329.44 89.2399 328.39 90.2899 327.1 90.2899H323.35C322.06 90.2899 321.01 91.3399 321.01 92.6299V96.5899C321.01 97.8799 322.06 98.9299 323.35 98.9299H345.95C347.24 98.9299 348.29 97.8799 348.29 96.5899V92.6299C348.29 91.3399 347.24 90.2899 345.95 90.2899H342.2C340.91 90.2899 339.86 89.2399 339.86 87.9499V59.6699C339.86 58.3799 340.91 57.3299 342.2 57.3299H345.95C347.24 57.3299 348.29 56.2799 348.29 54.9899V51.0299C348.29 49.7399 347.24 48.6899 345.95 48.6899H323.35C322.06 48.6899 321.01 49.7399 321.01 51.0299Z" fill="#0500E2"/>
<path d="M395.58 77.72C394.6 75.87 393.3 74.39 391.69 73.26C390.08 72.13 388.33 71.25 386.44 70.6C384.54 69.95 382.64 69.4 380.72 68.95C378.8 68.5 377.04 68.01 375.43 67.51C373.82 67.01 372.54 66.35 371.58 65.53C370.62 64.72 370.14 63.64 370.14 62.29C370.14 60.42 370.85 58.98 372.26 57.97C373.67 56.96 375.46 56.46 377.62 56.46C379.11 56.46 380.51 56.71 381.76 57.36C383.41 58.23 384.54 59.56 385.17 60.51C385.6 61.16 386.33 61.54 387.11 61.54H393.41C395.04 61.54 396.21 59.9 395.6 58.38C395.17 57.3 394.63 56.3 393.96 55.38C392.19 52.93 389.87 51.06 387.02 49.77C384.17 48.47 381.04 47.83 377.63 47.83C373.94 47.83 370.72 48.48 367.99 49.77C365.26 51.06 363.13 52.83 361.62 55.06C360.11 57.29 359.35 59.8 359.35 62.58C359.35 65.36 359.83 67.48 360.79 69.23C361.75 70.98 363.03 72.39 364.64 73.44C366.25 74.5 368.01 75.36 369.93 76.03C371.85 76.7 373.76 77.28 375.65 77.76C377.55 78.24 379.3 78.76 380.9 79.31C382.51 79.86 383.79 80.57 384.75 81.43C385.71 82.29 386.19 83.44 386.19 84.88C386.19 86.85 385.46 88.38 384 89.49C382.54 90.59 380.58 91.14 378.14 91.14C375.12 91.14 372.82 90.25 371.23 88.48C370.57 87.74 370.06 86.85 369.69 85.82C369.32 84.81 368.39 84.13 367.31 84.13H361.64C360.08 84.13 358.97 85.62 359.39 87.12C359.77 88.48 360.28 89.76 360.93 90.93C362.51 93.76 364.77 95.94 367.69 97.48C370.62 99.01 374.1 99.78 378.12 99.78C381.77 99.78 385.02 99.14 387.87 97.87C390.72 96.6 392.97 94.85 394.6 92.62C396.23 90.39 397.05 87.79 397.05 84.81C397.05 81.83 396.56 79.57 395.57 77.72H395.58Z" fill="#0500E2"/>
<path d="M309.49 77.72C308.51 75.87 307.21 74.39 305.6 73.26C303.99 72.13 302.24 71.25 300.35 70.6C298.45 69.95 296.55 69.4 294.63 68.95C292.71 68.49 290.95 68.01 289.34 67.51C287.73 67.01 286.45 66.35 285.49 65.53C284.53 64.72 284.05 63.64 284.05 62.29C284.05 60.42 284.76 58.98 286.17 57.97C287.58 56.96 289.37 56.46 291.53 56.46C293.02 56.46 294.42 56.71 295.67 57.36C297.32 58.23 298.45 59.56 299.08 60.51C299.51 61.16 300.24 61.54 301.02 61.54H307.32C308.95 61.54 310.12 59.9 309.51 58.38C309.08 57.3 308.54 56.3 307.87 55.38C306.1 52.93 303.78 51.06 300.93 49.77C298.08 48.47 294.95 47.83 291.54 47.83C287.85 47.83 284.63 48.48 281.9 49.77C279.17 51.06 277.04 52.83 275.53 55.06C274.02 57.29 273.26 59.8 273.26 62.58C273.26 65.36 273.74 67.48 274.7 69.23C275.66 70.98 276.94 72.39 278.55 73.44C280.16 74.5 281.92 75.36 283.84 76.03C285.76 76.7 287.67 77.28 289.56 77.76C291.46 78.24 293.21 78.76 294.81 79.31C296.42 79.86 297.7 80.57 298.66 81.43C299.62 82.29 300.1 83.44 300.1 84.88C300.1 86.85 299.37 88.38 297.91 89.49C296.45 90.6 294.49 91.14 292.05 91.14C289.03 91.14 286.73 90.25 285.14 88.48C284.48 87.74 283.97 86.85 283.6 85.82C283.23 84.79 282.3 84.13 281.22 84.13H275.55C273.99 84.13 272.88 85.62 273.3 87.12C273.68 88.48 274.19 89.76 274.84 90.93C276.42 93.76 278.68 95.94 281.6 97.48C284.53 99.01 288.01 99.78 292.03 99.78C295.68 99.78 298.93 99.14 301.78 97.87C304.63 96.6 306.88 94.85 308.51 92.62C310.14 90.39 310.96 87.79 310.96 84.81C310.96 81.83 310.47 79.57 309.48 77.72H309.49Z" fill="#0500E2"/>
<path d="M447.97 74.77C446.17 73.72 444.2 72.87 442.07 72.22C439.94 71.57 437.8 70.97 435.67 70.42C433.54 69.87 431.57 69.25 429.77 68.55C427.97 67.85 426.52 66.95 425.42 65.85C424.32 64.75 423.77 63.26 423.77 61.39C423.77 58.61 424.84 56.38 426.97 54.7C429.1 53.02 431.92 52.18 435.42 52.18C437.87 52.18 440.06 52.62 442 53.51C443.94 54.4 445.48 55.63 446.6 57.21C447.39 58.33 447.91 59.57 448.14 60.95C448.32 61.98 449.2 62.75 450.25 62.75H450.74C452.06 62.75 453.1 61.57 452.89 60.27C452.56 58.27 451.85 56.49 450.77 54.91C449.26 52.71 447.19 50.98 444.55 49.73C441.91 48.49 438.87 47.86 435.42 47.86C431.97 47.86 429.06 48.44 426.54 49.59C424.02 50.74 422.07 52.33 420.68 54.37C419.29 56.41 418.59 58.79 418.59 61.52C418.59 64.01 419.14 66.05 420.24 67.63C421.34 69.21 422.79 70.48 424.59 71.44C426.39 72.4 428.37 73.2 430.52 73.85C432.68 74.5 434.81 75.11 436.92 75.68C439.03 76.26 440.98 76.93 442.78 77.69C444.58 78.46 446.03 79.46 447.13 80.71C448.23 81.96 448.79 83.61 448.79 85.67C448.79 88.74 447.65 91.14 445.37 92.86C443.09 94.59 440.13 95.45 436.49 95.45C432.32 95.45 428.96 94.21 426.42 91.75C424.25 89.64 423 86.77 422.69 83.13C422.6 82.04 421.65 81.21 420.55 81.21H420.04C418.76 81.21 417.77 82.33 417.88 83.61C418.14 86.61 418.89 89.2 420.15 91.39C421.73 94.15 423.94 96.23 426.77 97.65C429.6 99.06 432.86 99.77 436.55 99.77C439.81 99.77 442.76 99.2 445.4 98.08C448.03 96.95 450.12 95.34 451.66 93.23C453.19 91.12 453.96 88.56 453.96 85.53C453.96 82.85 453.41 80.64 452.3 78.91C451.2 77.18 449.75 75.79 447.95 74.74L447.97 74.77Z" fill="#0500E2"/>
<path d="M478.08 51.79L462.73 96.06C462.24 97.46 463.28 98.92 464.77 98.92H465.24C466.16 98.92 466.97 98.34 467.28 97.47L471.5 85.39C471.72 84.75 472.33 84.31 473.01 84.31H491.79C492.47 84.31 493.08 84.74 493.31 85.39L497.48 97.45C497.78 98.32 498.6 98.9 499.52 98.9H499.99C501.47 98.9 502.51 97.44 502.03 96.04L486.68 51.77C486.05 49.94 484.32 48.71 482.38 48.71C480.44 48.71 478.72 49.94 478.08 51.77V51.79ZM475.64 80.01C474.54 80.01 473.76 78.92 474.13 77.88L479.44 62.68L480.92 58.02C481.39 56.53 483.51 56.53 483.98 58.02L485.41 62.54L490.72 77.88C491.08 78.92 490.31 80.01 489.2 80.01H475.65H475.64Z" fill="#0500E2"/>
<path d="M540.23 50.57C537.71 49.35 534.75 48.74 531.35 48.74H516.19C514.2 48.74 512.58 50.36 512.58 52.35V96.78C512.58 97.97 513.55 98.94 514.74 98.94H515.24C516.43 98.94 517.4 97.97 517.4 96.78V80.48C517.4 79.59 518.12 78.88 519 78.88H530.27C533.82 78.88 536.94 78.24 539.65 76.97C542.36 75.7 544.46 73.93 545.94 71.65C547.42 69.37 548.17 66.72 548.17 63.7C548.17 60.68 547.47 57.98 546.08 55.75C544.69 53.52 542.74 51.8 540.22 50.57H540.23ZM539.48 71.57C537.13 73.56 534.04 74.56 530.2 74.56H519C518.11 74.56 517.4 73.84 517.4 72.96V54.67C517.4 53.78 518.12 53.07 519 53.07H531.35C534.85 53.07 537.67 54.04 539.8 55.98C541.93 57.92 543 60.5 543 63.71C543 66.92 541.83 69.59 539.48 71.58V71.57Z" fill="#0500E2"/>
<path d="M586.97 50.57C584.45 49.35 581.49 48.74 578.09 48.74H562.97C560.96 48.74 559.32 50.37 559.32 52.39V96.78C559.32 97.97 560.29 98.94 561.48 98.94H561.98C563.17 98.94 564.14 97.97 564.14 96.78V80.48C564.14 79.59 564.86 78.88 565.74 78.88H577.01C580.56 78.88 583.68 78.24 586.39 76.97C589.1 75.7 591.2 73.93 592.68 71.65C594.16 69.37 594.91 66.72 594.91 63.7C594.91 60.68 594.21 57.98 592.82 55.75C591.43 53.52 589.48 51.8 586.96 50.57H586.97ZM586.22 71.57C583.87 73.56 580.78 74.56 576.94 74.56H565.74C564.85 74.56 564.14 73.84 564.14 72.96V54.67C564.14 53.78 564.86 53.07 565.74 53.07H578.09C581.59 53.07 584.41 54.04 586.54 55.98C588.67 57.92 589.74 60.5 589.74 63.71C589.74 66.92 588.57 69.59 586.22 71.58V71.57Z" fill="#0500E2"/>
<path d="M633.79 70.74H611.4C610.51 70.74 609.8 70.02 609.8 69.14V50.9C609.8 49.71 608.83 48.74 607.64 48.74H607.21C606.02 48.74 605.05 49.71 605.05 50.9V96.78C605.05 97.97 606.02 98.94 607.21 98.94H607.64C608.83 98.94 609.8 97.97 609.8 96.78V76.67C609.8 75.78 610.52 75.07 611.4 75.07H633.79C634.68 75.07 635.39 75.79 635.39 76.67V96.78C635.39 97.97 636.36 98.94 637.55 98.94H638.05C639.24 98.94 640.21 97.97 640.21 96.78V50.89C640.21 49.7 639.24 48.73 638.05 48.73H637.55C636.36 48.73 635.39 49.7 635.39 50.89V69.13C635.39 70.02 634.67 70.73 633.79 70.73V70.74Z" fill="#0500E2"/>
<path d="M666.89 48.74H655.82C654.63 48.74 653.66 49.71 653.66 50.9C653.66 52.09 654.63 53.06 655.82 53.06H665.29C666.18 53.06 666.89 53.78 666.89 54.66V93.01C666.89 93.9 666.17 94.61 665.29 94.61H655.82C654.63 94.61 653.66 95.58 653.66 96.77C653.66 97.96 654.63 98.93 655.82 98.93H682.79C683.98 98.93 684.95 97.96 684.95 96.77C684.95 95.58 683.98 94.61 682.79 94.61H673.32C672.43 94.61 671.72 93.89 671.72 93.01V54.65C671.72 53.76 672.44 53.05 673.32 53.05H682.79C683.98 53.05 684.95 52.08 684.95 50.89C684.95 49.7 683.98 48.73 682.79 48.73H666.9L666.89 48.74Z" fill="#0500E2"/>
<path d="M750.66 93.01V76.66C750.66 75.77 751.38 75.06 752.26 75.06H770.21C771.4 75.06 772.37 74.09 772.37 72.9C772.37 71.71 771.4 70.74 770.21 70.74H752.26C751.37 70.74 750.66 70.02 750.66 69.14V54.66C750.66 53.77 751.38 53.06 752.26 53.06H778.99C780.18 53.06 781.15 52.09 781.15 50.9C781.15 49.71 780.18 48.74 778.99 48.74H748.96C747.27 48.74 745.91 50.11 745.91 51.79V95.88C745.91 97.57 747.28 98.93 748.96 98.93H779.27C780.46 98.93 781.43 97.96 781.43 96.77C781.43 95.58 780.46 94.61 779.27 94.61H752.25C751.36 94.61 750.65 93.89 750.65 93.01H750.66Z" fill="#0500E2"/>
<path d="M730.39 72.1C731.97 70.76 733.18 69.24 734.02 67.53C734.86 65.83 735.28 64.04 735.28 62.17C735.28 59.34 734.57 56.92 733.16 54.91C731.75 52.9 729.82 51.36 727.37 50.31C724.93 49.26 722.17 48.73 719.1 48.73H703.55C701.53 48.73 699.9 50.37 699.9 52.38V96.72C699.9 97.94 700.89 98.92 702.1 98.92H702.44C703.66 98.92 704.64 97.93 704.64 96.72V78.62C704.64 77.4 705.63 76.42 706.84 76.42H711.16C712.58 76.42 713.93 77.08 714.8 78.21L730.13 98.07C730.55 98.61 731.19 98.93 731.87 98.93H732.06C733.89 98.93 734.92 96.83 733.8 95.38L720.6 78.32C719.96 77.5 720.44 76.31 721.46 76.13C722.42 75.96 723.55 75.7 724.58 75.28C726.86 74.51 728.79 73.46 730.37 72.12L730.39 72.1ZM716.94 72.17H707.09C705.74 72.17 704.65 71.08 704.65 69.73V54.6C704.65 53.74 705.35 53.05 706.2 53.05H719.1C721.11 53.05 722.96 53.42 724.64 54.16C726.32 54.9 727.66 55.95 728.67 57.29C729.68 58.63 730.18 60.26 730.18 62.18C730.18 64.19 729.6 65.96 728.45 67.46C727.3 68.97 725.74 70.13 723.78 70.95C721.81 71.77 719.54 72.17 716.95 72.17H716.94Z" fill="#0500E2"/>
</g>
<defs>
<clipPath id="clip0_1441_2205">
<rect width="781.44" height="146.19" fill="white"/>
</clipPath>
</defs>
</svg>
