<svg width="116" height="44" viewBox="0 0 116 44" fill="none" xmlns="http://www.w3.org/2000/svg">
<g clip-path="url(#clip0_1441_2257)">
<path d="M21.9741 44.0078C34.1287 44.0078 43.982 34.1546 43.982 22C43.982 9.84543 34.1287 -0.0078125 21.9741 -0.0078125C9.81955 -0.0078125 -0.0336914 9.84543 -0.0336914 22C-0.0336914 34.1546 9.81955 44.0078 21.9741 44.0078Z" fill="#0098EA"/>
<path d="M29.4884 12.2755H14.4589C11.6955 12.2755 9.944 15.2564 11.3342 17.6661L20.6099 33.7434C21.2152 34.7932 22.7321 34.7932 23.3374 33.7434L32.615 17.6661C34.0033 15.2602 32.2518 12.2755 29.4903 12.2755H29.4884ZM20.6024 28.9221L18.5823 25.0125L13.708 16.2948C13.3865 15.7368 13.7837 15.0218 14.457 15.0218H20.6005V28.924L20.6024 28.9221ZM30.2355 16.2929L25.3632 25.0144L23.3431 28.9221V15.02H29.4865C30.1599 15.02 30.5571 15.7349 30.2355 16.2929Z" fill="white"/>
<path d="M57.8551 34.1574H62.7843V16.9667H69.6001V12.2839H51.0391V16.9667H57.8551V34.1574Z" fill="black"/>
<path d="M81.4465 34.5271C87.6697 34.5271 92.7529 29.4438 92.7529 23.2206C92.7529 16.9975 87.6697 11.9142 81.4465 11.9142C75.1925 11.9142 70.1401 16.9975 70.1401 23.2206C70.1401 29.4438 75.1925 34.5271 81.4465 34.5271ZM81.4465 29.7827C77.8728 29.7827 75.0693 26.7635 75.0693 23.2206C75.0693 19.6777 77.8728 16.6586 81.4465 16.6586C84.9894 16.6586 87.7929 19.6777 87.7929 23.2206C87.7929 26.7635 84.9894 29.7827 81.4465 29.7827Z" fill="black"/>
<path d="M115.247 34.1574V12.2839H110.318V25.7777L99.6894 12.2839H95.4688V34.1574H100.367V20.6328L111.027 34.1574H115.247Z" fill="black"/>
</g>
<defs>
<clipPath id="clip0_1441_2257">
<rect width="116" height="44" fill="white"/>
</clipPath>
</defs>
</svg>
