<svg width="477" height="89" viewBox="0 0 477 89" fill="none" xmlns="http://www.w3.org/2000/svg">
<path d="M60.5549 63.712V75.208H13.1311C13.7853 67.642 16.2267 62.318 24.6695 54.8331L60.5549 24.2191V51.0834H73.473V1.65918H0.0141983V26.2955H12.9273V14.577H51.9509L16.2409 45.0488L16.1556 45.1294C1.1899 58.379 0 69.074 0 81.674V88.13H73.468V63.717H60.5501L60.5549 63.712Z" fill="#005741"/>
<path d="M152.53 47.4614C152.487 47.4614 152.449 47.4993 152.449 47.5467C152.71 52.7423 154.876 61.133 166.021 61.133C174.62 61.133 176.384 55.7667 177.076 54.2498C177.09 54.2213 177.114 54.2024 177.147 54.2024H185.466C185.519 54.2024 185.552 54.2498 185.542 54.2972C185.035 57.118 180.683 68.158 166.021 68.158C151.359 68.158 144.167 57.141 144.167 45.2476C144.167 30.6943 153.331 22.2373 165.732 22.2373C177.294 22.2373 185.95 30.9788 185.95 41.9719C185.95 42.6119 185.936 43.3846 185.903 44.2805C185.869 45.1623 185.76 46.2004 185.575 47.3903C185.571 47.4282 185.538 47.4567 185.5 47.4567H152.53V47.4614ZM165.542 28.6891C155.066 28.6891 152.549 36.4967 152.549 41.0238C152.549 41.0665 152.582 41.1092 152.629 41.1092H177.787C177.83 41.1092 177.863 41.0712 177.867 41.0286C178.161 36.0226 174.777 28.6891 165.542 28.6891Z" fill="#005741"/>
<path d="M216.81 67.035C216.81 67.073 216.782 67.106 216.744 67.111C215.919 67.234 214.833 67.362 213.487 67.485C212.108 67.613 210.709 67.679 209.301 67.679C202.129 67.679 195.535 65.105 195.535 52.3725V30.4999C195.535 30.4572 195.502 30.4193 195.454 30.4193H187.524C187.481 30.4193 187.443 30.3861 187.443 30.3387V23.4698C187.443 23.4271 187.476 23.3892 187.524 23.3892H195.454C195.497 23.3892 195.535 23.356 195.535 23.3086V8.73626C195.535 8.69366 195.568 8.65576 195.616 8.65576H203.836C203.878 8.65576 203.916 8.68886 203.916 8.73626V23.3086C203.916 23.3512 203.949 23.3892 203.997 23.3892H215.198C215.241 23.3892 215.279 23.4224 215.279 23.4698V30.3387C215.279 30.3814 215.246 30.4193 215.198 30.4193H203.997C203.954 30.4193 203.916 30.4525 203.916 30.4999V50.4763C203.916 59.659 207.671 59.976 211.136 59.976H214.17C215.236 59.976 216.09 59.891 216.72 59.715C216.768 59.701 216.815 59.739 216.815 59.791V67.035H216.81Z" fill="#005741"/>
<path d="M263.817 23.4747V67.025C263.817 67.068 263.784 67.106 263.737 67.106H255.616C255.574 67.106 255.536 67.073 255.536 67.025V59.801C255.536 59.72 255.427 59.692 255.393 59.768C253.924 62.674 249.003 68.163 240.229 68.163C228.543 68.163 217.797 58.99 217.797 45.2525C217.797 34.0981 225.737 22.2422 240.229 22.2422C248.434 22.2422 253.715 27.2955 255.393 30.6376C255.431 30.7087 255.536 30.685 255.536 30.6044V23.4747C255.536 23.4321 255.569 23.3941 255.616 23.3941H263.737C263.779 23.3941 263.817 23.4273 263.817 23.4747ZM240.712 60.654C251.018 60.654 255.54 52.33 255.54 45.2525C255.54 37.0514 249.752 29.7511 240.712 29.7511C230.482 29.7511 226.078 38.4783 226.078 45.2525C226.078 52.0266 230.24 60.654 240.712 60.654Z" fill="#005741"/>
<path d="M304.514 39.2795C304.476 39.2795 304.448 39.251 304.438 39.2131C303.723 35.6056 302.367 29.7511 292.317 29.7511C284.268 29.7511 278.74 35.7857 278.74 45.2525C278.74 52.1973 282.087 60.654 292.796 60.654C300.802 60.654 303.149 56.8145 304.524 52.1451C304.533 52.1119 304.562 52.0882 304.6 52.0882H312.824C312.872 52.0882 312.91 52.1309 312.905 52.1783C311.838 59.55 306.301 68.163 292.217 68.163C279.02 68.163 270.364 58.312 270.364 45.2525C270.364 33.6952 277.669 22.2422 292.123 22.2422C307.534 22.2422 312.341 32.7661 312.815 39.1941C312.815 39.2416 312.782 39.2795 312.734 39.2795H304.514Z" fill="#005741"/>
<path d="M319.864 1.15656H328.084C328.127 1.15656 328.164 1.18976 328.164 1.23716V30.7704C328.164 30.851 328.274 30.8747 328.311 30.8036C329.596 28.2484 333.578 22.2422 343.571 22.2422C357.399 22.2422 360.258 32.714 360.035 41.3037V67.026C360.035 67.068 360.002 67.106 359.954 67.106H351.734C351.691 67.106 351.654 67.073 351.654 67.026V43.9015C351.654 36.3878 349.117 29.6516 340.58 29.6516C334.133 29.6516 328.16 34.449 328.16 44.5746V67.026C328.16 67.068 328.127 67.106 328.079 67.106H319.859C319.816 67.106 319.779 67.073 319.779 67.026V1.23235C319.779 1.18975 319.812 1.15186 319.859 1.15186L319.864 1.15656Z" fill="#005741"/>
<path d="M411.782 23.4747V67.025C411.782 67.068 411.748 67.106 411.701 67.106H403.581C403.538 67.106 403.5 67.073 403.5 67.025V59.801C403.5 59.72 403.396 59.697 403.358 59.768C401.95 62.337 397.314 68.163 388.193 68.163C375.346 68.163 365.761 58.042 365.761 45.2525C365.761 34.6812 373.336 22.2422 388.193 22.2422C397.205 22.2422 401.945 28.073 403.358 30.6376C403.396 30.7087 403.5 30.685 403.5 30.6044V23.4747C403.5 23.4321 403.533 23.3941 403.581 23.3941H411.701C411.744 23.3941 411.782 23.4273 411.782 23.4747ZM388.677 60.654C398.499 60.654 403.505 52.6571 403.505 45.2525C403.505 37.0135 397.66 29.7511 388.677 29.7511C378.096 29.7511 373.844 39.0614 374.043 45.2525C374.375 55.7195 381.566 60.654 388.677 60.654Z" fill="#005741"/>
<path d="M417.394 6.52268C417.394 4.92518 417.887 3.52678 418.878 2.32738C420.172 0.753579 422.187 -0.123423 424.216 0.0140775C425.79 0.123077 427.16 0.758278 428.326 1.92918C429.492 3.10008 430.132 4.47008 430.241 6.04398C430.379 8.07758 429.502 10.0828 427.932 11.3817C426.733 12.3725 425.33 12.8703 423.732 12.8703C421.955 12.8703 420.452 12.2587 419.229 11.0309C418.001 9.80788 417.39 8.30518 417.39 6.52748L417.394 6.52268Z" fill="#005741"/>
<path d="M427.932 23.394H419.717C419.673 23.394 419.636 23.4301 419.636 23.4746V67.021C419.636 67.065 419.673 67.101 419.717 67.101H427.932C427.977 67.101 428.013 67.065 428.013 67.021V23.4746C428.013 23.4301 427.977 23.394 427.932 23.394Z" fill="#005741"/>
<path d="M476.167 67.101H468.127C468.084 67.101 468.046 67.068 468.046 67.021V39.5258C468.17 32.4293 466.416 31.429 460.021 31.5143H444.041C443.998 31.5143 443.96 31.5475 443.96 31.5949V67.021C443.96 67.063 443.927 67.101 443.879 67.101H435.92C435.877 67.101 435.84 67.068 435.84 67.021V23.4698C435.84 23.4271 435.873 23.3892 435.92 23.3892H460.016C469.947 23.4935 476.153 31.7324 476.153 39.5258V67.096H476.157L476.167 67.101Z" fill="#005741"/>
<path d="M114.909 44.9441C107.509 51.6329 106.922 57.023 106.922 63.37V67.101H140.844V59.635H114.44C114.829 56.3544 116.056 53.9083 119.754 50.5568L140.844 32.7848V23.356H106.893V30.8222H131.724L115.004 44.854L114.909 44.9394V44.9441Z" fill="#005741"/>
</svg>
